<svg width="43" height="35" viewBox="0 0 43 35" fill="none" xmlns="http://www.w3.org/2000/svg">
<path d="M5.11186 34.3415C3.95827 34.3415 2.97108 33.9335 2.15028 33.1174C1.32809 32.3 0.916992 31.3177 0.916992 30.1708V5.14641C0.916992 3.99946 1.32809 3.01795 2.15028 2.20187C2.97108 1.38441 3.95827 0.975677 5.11186 0.975677H38.6708C39.8244 0.975677 40.8123 1.38441 41.6345 2.20187C42.4553 3.01795 42.8657 3.99946 42.8657 5.14641V30.1708C42.8657 31.3177 42.4553 32.3 41.6345 33.1174C40.8123 33.9335 39.8244 34.3415 38.6708 34.3415H5.11186ZM21.8913 19.744L38.6708 9.31714V5.14641L21.8913 15.5732L5.11186 5.14641V9.31714L21.8913 19.744Z" fill="#699BF7"/>
</svg>
