<svg width="151" height="106" viewBox="0 0 151 106" fill="none" xmlns="http://www.w3.org/2000/svg">
<g clip-path="url(#clip0_246_462)">
<path d="M147.665 16.5331C146.799 13.3375 145.11 10.4242 142.765 8.08325C140.42 5.74233 137.502 4.05545 134.302 3.1906C122.584 0 75.4234 0 75.4234 0C75.4234 0 28.2607 0.0965775 16.5429 3.28718C13.3421 4.15208 10.4241 5.83904 8.07946 8.18008C5.73484 10.5211 4.04539 13.4345 3.17937 16.6302C-0.365 37.4168 -1.73993 69.0908 3.2767 89.0459C4.14281 92.2415 5.83229 95.1548 8.17691 97.4957C10.5215 99.8366 13.4395 101.523 16.6402 102.388C28.358 105.579 75.5196 105.579 75.5196 105.579C75.5196 105.579 122.681 105.579 134.398 102.388C137.599 101.524 140.517 99.8367 142.861 97.4958C145.206 95.1549 146.896 92.2415 147.762 89.0459C151.5 68.2299 152.652 36.5753 147.665 16.5331Z" fill="#FF0000"/>
<path d="M60.4124 75.4131L99.5355 52.7892L60.4124 30.1653V75.4131Z" fill="white"/>
</g>
<defs>
<clipPath id="clip0_246_462">
<rect width="151" height="106" fill="white"/>
</clipPath>
</defs>
</svg>
