<svg width="150" height="116" viewBox="0 0 150 116" fill="none" xmlns="http://www.w3.org/2000/svg">
<path d="M127.064 9.7152C117.227 5.11704 106.82 1.84985 96.1183 0C94.7853 2.40758 93.2278 5.64579 92.1538 8.22195C80.6155 6.4887 69.1833 6.4887 57.8572 8.22195C56.7837 5.64637 55.1912 2.40758 53.8458 0C43.1337 1.8507 32.7179 5.12622 22.8761 9.7392C3.29176 39.3051 -2.01742 68.1358 0.636873 96.5585C13.6265 106.249 26.2148 112.136 38.591 115.988C41.6667 111.763 44.3857 107.289 46.7197 102.613C42.2761 100.923 37.9923 98.8406 33.9193 96.3899C34.9911 95.5962 36.0377 94.7691 37.0576 93.9097C61.7384 105.442 88.5556 105.442 112.942 93.9097C113.967 94.7634 115.013 95.5904 116.08 96.3899C112 98.847 107.709 100.934 103.256 102.626C105.603 107.32 108.317 111.798 111.385 116C123.773 112.148 136.373 106.261 149.362 96.5585C152.477 63.6098 144.042 35.0437 127.064 9.7152ZM50.0824 79.0791C42.6732 79.0791 36.597 72.1689 36.597 63.7544C36.597 55.3398 42.5437 48.418 50.0824 48.418C57.6216 48.418 63.6972 55.3275 63.5677 63.7544C63.5794 72.1689 57.6216 79.0791 50.0824 79.0791ZM99.9169 79.0791C92.5077 79.0791 86.4321 72.1689 86.4321 63.7544C86.4321 55.3398 92.3782 48.418 99.9169 48.418C107.456 48.418 113.532 55.3275 113.402 63.7544C113.402 72.1689 107.456 79.0791 99.9169 79.0791Z" fill="#5865F2"/>
</svg>
