<svg width="46" height="46" viewBox="0 0 46 46" fill="none" xmlns="http://www.w3.org/2000/svg">
<mask id="mask0_65_79" style="mask-type:luminance" maskUnits="userSpaceOnUse" x="0" y="0" width="46" height="46">
<path d="M43.8237 19.3532C44.1153 17.4069 44.0175 15.4226 43.5359 13.5139C42.8788 10.9058 41.5198 8.52481 39.6048 6.62632C37.6955 4.72201 35.3007 3.37048 32.6774 2.7167C30.7576 2.23851 28.7618 2.14167 26.8043 2.43172M35.0867 18.433C35.2475 17.3707 35.155 16.2857 34.8167 15.2655C34.4784 14.2452 33.9037 13.3183 33.139 12.5594C32.3756 11.7993 31.4432 11.2281 30.4171 10.892C29.391 10.5558 28.2997 10.464 27.2314 10.6241" stroke="white" stroke-width="4" stroke-linecap="round" stroke-linejoin="round"/>
<path d="M12.2782 5.83319C12.6889 5.8334 13.092 5.94282 13.4458 6.1501C13.7996 6.35737 14.0912 6.65497 14.2904 7.01203L17.1072 12.0547C17.2889 12.3801 17.3881 12.7447 17.3961 13.1169C17.4042 13.489 17.3208 13.8575 17.1532 14.1904L14.44 19.5844C14.44 19.5844 15.2262 23.6039 18.5162 26.8749C21.8072 30.1459 25.8362 30.915 25.8362 30.915L31.2603 28.2174C31.5953 28.0508 31.9662 27.968 32.3407 27.9761C32.7152 27.9843 33.0821 28.0832 33.4094 28.2643L38.4974 31.0763C38.8559 31.2748 39.1545 31.5649 39.3624 31.9167C39.5702 32.2684 39.6798 32.669 39.6796 33.0769V38.8842C39.6796 41.8404 36.9169 43.9772 34.099 43.0307C28.3111 41.0896 19.3277 37.3917 13.6319 31.731C7.93846 26.0692 4.22032 17.1363 2.26686 11.3817C1.31603 8.58 3.46403 5.83319 6.43854 5.83319H12.2782Z" fill="white" stroke="white" stroke-width="4" stroke-linejoin="round"/>
</mask>
<g mask="url(#mask0_65_79)">
<path d="M-4.27039 -4.2316H50.9837V50.7046H-4.27039V-4.2316Z" fill="#49A02A"/>
</g>
</svg>
