<svg width="31" height="35" viewBox="0 0 31 35" fill="none" xmlns="http://www.w3.org/2000/svg">
<path d="M14.622 16.899L0.428009 31.965C0.428543 31.9681 0.429609 31.9707 0.430109 31.9739C0.865429 33.6099 2.35971 34.8145 4.13311 34.8145C4.84203 34.8145 5.50761 34.6228 6.07841 34.2864L6.12374 34.2598L22.1017 25.0398L14.622 16.899Z" fill="#EB3131"/>
<path d="M28.983 14.334L28.9694 14.3247L22.0712 10.3257L14.2995 17.2413L22.0982 25.039L28.96 21.0798C30.163 20.4303 30.9797 19.1621 30.9797 17.6996C30.9797 16.2476 30.1741 14.9856 28.983 14.334Z" fill="#F6B60B"/>
<path d="M0.425986 3.37C0.340656 3.68466 0.295807 4.01425 0.295807 4.35651V30.9795C0.295807 31.3211 0.340127 31.6518 0.426527 31.9654L15.1105 17.2844L0.425986 3.37Z" fill="#5778C5"/>
<path d="M14.727 17.668L22.0743 10.3229L6.11431 1.06947C5.53419 0.722014 4.85711 0.521484 4.13261 0.521484C2.35921 0.521484 0.862906 1.72828 0.427505 3.36618C0.426971 3.36778 0.426971 3.36888 0.426971 3.37028L14.727 17.668Z" fill="#3BAD49"/>
</svg>
