<svg width="38" height="43" viewBox="0 0 38 43" fill="none" xmlns="http://www.w3.org/2000/svg">
<g clip-path="url(#clip0_65_80)">
<path d="M28.1567 15.9689C30.8585 17.8881 34.1684 19.0174 37.7431 19.0174V12.1817C37.0665 12.1819 36.3918 12.1117 35.7299 11.9723V17.353C32.1554 17.353 28.8459 16.2239 26.1436 14.3048V28.2546C26.1436 35.2331 20.4507 40.8897 13.4288 40.8897C10.8087 40.8897 8.3734 40.1026 6.35046 38.7526C8.65938 41.0987 11.8793 42.554 15.4415 42.554C22.464 42.554 28.157 36.8973 28.157 29.9185V15.9689H28.1567ZM30.6403 9.07251C29.2595 7.57349 28.3528 5.63626 28.1567 3.49452V2.61536H26.2489C26.7291 5.33741 28.3673 7.66295 30.6403 9.07251ZM10.7918 33.3977C10.0204 32.3926 9.60337 31.1629 9.60525 29.8986C9.60525 26.7069 12.2091 24.1191 15.4216 24.1191C16.0202 24.1188 16.6153 24.2101 17.1859 24.3899V17.4013C16.5191 17.3106 15.8462 17.2719 15.1736 17.2861V22.7256C14.6027 22.5457 14.0073 22.4544 13.4084 22.455C10.196 22.455 7.59229 25.0425 7.59229 28.2346C7.59229 30.4917 8.89371 32.4457 10.7918 33.3977Z" fill="#FF004F"/>
<path d="M26.1436 14.3046C28.8461 16.2237 32.1553 17.3529 35.7299 17.3529V11.9722C33.7346 11.5498 31.9682 10.5137 30.6402 9.07251C28.367 7.66281 26.7291 5.33726 26.2489 2.61536H21.2378V29.9183C21.2263 33.1012 18.627 35.6785 15.4214 35.6785C13.5325 35.6785 11.8543 34.7838 10.7915 33.3975C8.89372 32.4457 7.59215 30.4915 7.59215 28.2347C7.59215 25.043 10.1959 22.4551 13.4083 22.4551C14.0238 22.4551 14.617 22.5503 15.1734 22.7258V17.2863C8.27476 17.4279 2.72668 23.0294 2.72668 29.9184C2.72668 33.3574 4.10824 36.4749 6.35062 38.7529C8.37355 40.1026 10.8087 40.89 13.4289 40.89C20.451 40.89 26.1437 35.2329 26.1437 28.2546V14.3048L26.1436 14.3046Z" fill="black"/>
<path d="M35.7299 11.972V10.5175C33.9305 10.5202 32.1668 10.0194 30.6402 9.07251C31.9915 10.5426 33.7709 11.5564 35.7299 11.9723V11.972ZM26.2487 2.61521C26.203 2.35513 26.1678 2.09331 26.1434 1.83039V0.951233H19.2242V28.2544C19.2132 31.4371 16.6138 34.0143 13.4081 34.0143C12.4993 34.0157 11.6029 33.8045 10.7914 33.3978C11.8541 34.7838 13.5324 35.6783 15.4212 35.6783C18.6267 35.6783 21.2263 33.1014 21.2376 29.9184V2.61535H26.2487V2.61521ZM15.1737 17.2861V15.7373C14.5955 15.6588 14.0126 15.6195 13.4291 15.6197C6.40629 15.6197 0.713562 21.2766 0.713562 28.2544C0.713562 32.6292 2.95087 36.4847 6.35074 38.7526C4.10837 36.4748 2.72681 33.3571 2.72681 29.9183C2.72681 23.0294 8.27474 17.4278 15.1737 17.2861Z" fill="#00F2EA"/>
</g>
<defs>
<clipPath id="clip0_65_80">
<rect width="37.0305" height="41.7073" fill="white" transform="translate(0.713562 0.951233)"/>
</clipPath>
</defs>
</svg>
