<svg width="568" height="329" viewBox="0 0 568 329" fill="none" xmlns="http://www.w3.org/2000/svg">
<mask id="mask0_21_3" style="mask-type:luminance" maskUnits="userSpaceOnUse" x="146" y="0" width="132" height="231">
<path d="M146.931 -7.62939e-05C146.931 -7.62939e-05 199.329 103.287 209.761 122.323C217.622 136.666 224.582 149.614 217.649 164.749C213.585 173.054 185.603 230.204 185.603 230.204H231.137C237.946 230.204 244.16 226.327 247.153 220.214L274.406 164.551C278.515 156.157 278.428 146.318 274.172 137.996L212.265 16.9644C206.941 6.55345 196.229 -7.62939e-05 184.536 -7.62939e-05H146.931Z" fill="white"/>
</mask>
<g mask="url(#mask0_21_3)">
<path d="M146.931 -7.62939e-05C146.931 -7.62939e-05 199.329 103.287 209.761 122.323C217.622 136.666 224.582 149.614 217.649 164.749C213.585 173.054 185.603 230.204 185.603 230.204H231.137C237.946 230.204 244.16 226.327 247.153 220.214L274.406 164.551C278.515 156.157 278.428 146.318 274.172 137.996L212.265 16.9644C206.941 6.55345 196.229 -7.62939e-05 184.536 -7.62939e-05H146.931Z" fill="url(#paint0_linear_21_3)"/>
</g>
<mask id="mask1_21_3" style="mask-type:luminance" maskUnits="userSpaceOnUse" x="280" y="98" width="131" height="231">
<path d="M326.75 98.0911C319.943 98.0911 313.731 101.968 310.736 108.08L283.483 163.744C279.375 172.139 279.461 181.977 283.717 190.299L345.624 311.33C350.948 321.741 361.659 328.295 373.355 328.295H410.958C410.958 328.295 358.56 225.008 348.126 205.971C340.268 191.627 333.307 178.68 340.24 163.546C344.302 155.24 372.284 98.0911 372.284 98.0911H326.75Z" fill="white"/>
</mask>
<g mask="url(#mask1_21_3)">
<path d="M326.75 98.0911C319.943 98.0911 313.731 101.968 310.736 108.08L283.483 163.744C279.375 172.139 279.461 181.977 283.717 190.299L345.624 311.33C350.948 321.741 361.659 328.295 373.355 328.295H410.958C410.958 328.295 358.56 225.008 348.126 205.971C340.268 191.627 333.307 178.68 340.24 163.546C344.302 155.24 372.284 98.0911 372.284 98.0911H326.75Z" fill="url(#paint1_linear_21_3)"/>
</g>
<mask id="mask2_21_3" style="mask-type:luminance" maskUnits="userSpaceOnUse" x="280" y="98" width="131" height="231">
<path d="M326.75 98.0911C319.943 98.0911 313.731 101.968 310.736 108.08L283.483 163.744C279.375 172.139 279.461 181.977 283.717 190.299L345.624 311.33C350.948 321.741 361.659 328.295 373.355 328.295H410.958C410.958 328.295 358.56 225.008 348.126 205.971C340.268 191.627 333.307 178.68 340.24 163.546C344.302 155.24 372.284 98.0911 372.284 98.0911H326.75Z" fill="white"/>
</mask>
<g mask="url(#mask2_21_3)">
<path d="M326.75 98.0911C319.943 98.0911 313.731 101.968 310.736 108.08L283.483 163.744C279.375 172.139 279.461 181.977 283.717 190.299L345.624 311.33C350.948 321.741 361.659 328.295 373.355 328.295H410.958C410.958 328.295 358.56 225.008 348.126 205.971C340.268 191.627 333.307 178.68 340.24 163.546C344.302 155.24 372.284 98.0911 372.284 98.0911H326.75Z" fill="url(#paint2_linear_21_3)"/>
</g>
<mask id="mask3_21_3" style="mask-type:luminance" maskUnits="userSpaceOnUse" x="185" y="16" width="93" height="215">
<path d="M224.276 151.216L185.603 230.204H231.137C237.946 230.204 244.16 226.327 247.153 220.214L274.406 164.551C278.515 156.157 278.428 146.318 274.172 137.996L212.265 16.9644C243.098 77.244 245.503 107.857 224.276 151.216Z" fill="white"/>
</mask>
<g mask="url(#mask3_21_3)">
<path d="M224.276 151.216L185.603 230.204H231.137C237.946 230.204 244.16 226.327 247.153 220.214L274.406 164.551C278.515 156.157 278.428 146.318 274.172 137.996L212.265 16.9644C243.098 77.244 245.503 107.857 224.276 151.216Z" fill="url(#paint3_linear_21_3)"/>
</g>
<mask id="mask4_21_3" style="mask-type:luminance" maskUnits="userSpaceOnUse" x="-487" y="-146" width="1256" height="1775">
<path d="M-486.779 -145.715H768.003V1628.9H-486.779V-145.715Z" fill="white"/>
</mask>
<g mask="url(#mask4_21_3)">
<mask id="mask5_21_3" style="mask-type:luminance" maskUnits="userSpaceOnUse" x="185" y="16" width="93" height="215">
<path d="M185.603 16.9644H277.427V230.204H185.603V16.9644Z" fill="white"/>
</mask>
<g mask="url(#mask5_21_3)">
<mask id="mask6_21_3" style="mask-type:luminance" maskUnits="userSpaceOnUse" x="185" y="16" width="93" height="215">
<path d="M212.265 16.9644C243.098 77.244 245.505 107.857 224.276 151.214L185.605 230.204H231.137C237.946 230.204 244.16 226.327 247.153 220.212L274.404 164.551C278.515 156.157 278.428 146.318 274.172 137.996L212.265 16.9644Z" fill="white"/>
</mask>
<g mask="url(#mask6_21_3)">
<mask id="mask7_21_3" style="mask-type:luminance" maskUnits="userSpaceOnUse" x="-69559" y="-67441" width="138142" height="138142">
<mask id="mask8_21_3" style="mask-type:luminance" maskUnits="userSpaceOnUse" x="-69559" y="-67441" width="138142" height="138142">
<path d="M-69558.4 -67440.6H68582.7V70700.5H-69558.4V-67440.6Z" fill="white"/>
</mask>
<g mask="url(#mask8_21_3)">
<path d="M-69558.4 -67440.6H68582.7V70700.5H-69558.4V-67440.6Z" fill="url(#paint4_linear_21_3)"/>
</g>
</mask>
<g mask="url(#mask7_21_3)">
<path d="M212.262 16.9639C243.095 77.2435 245.502 107.856 224.273 151.214L185.602 230.203H231.134C237.943 230.203 244.157 226.327 247.15 220.212L274.401 164.551C278.511 156.157 278.425 146.317 274.169 137.995L212.262 16.9639Z" fill="url(#paint5_linear_21_3)"/>
</g>
</g>
</g>
<mask id="mask9_21_3" style="mask-type:luminance" maskUnits="userSpaceOnUse" x="209" y="103" width="69" height="128">
<path d="M209.618 103.85H277.427V230.204H209.618V103.85Z" fill="white"/>
</mask>
<g mask="url(#mask9_21_3)">
<g opacity="0.419998">
<mask id="mask10_21_3" style="mask-type:luminance" maskUnits="userSpaceOnUse" x="209" y="103" width="69" height="128">
<path d="M274.172 137.996L256.706 103.85C257.897 123.411 253.169 141.248 243.009 162L209.618 230.204H231.137C237.946 230.204 244.16 226.327 247.153 220.212L274.404 164.551C278.514 156.157 278.428 146.318 274.172 137.996Z" fill="white"/>
</mask>
<g mask="url(#mask10_21_3)">
<mask id="mask11_21_3" style="mask-type:luminance" maskUnits="userSpaceOnUse" x="-69559" y="-67441" width="138142" height="138142">
<mask id="mask12_21_3" style="mask-type:luminance" maskUnits="userSpaceOnUse" x="-69559" y="-67441" width="138142" height="138142">
<path d="M-69558.4 -67440.6H68582.7V70700.5H-69558.4V-67440.6Z" fill="white"/>
</mask>
<g mask="url(#mask12_21_3)">
<path d="M-69558.4 -67440.6H68582.7V70700.5H-69558.4V-67440.6Z" fill="url(#paint6_linear_21_3)"/>
</g>
</mask>
<g mask="url(#mask11_21_3)">
<path d="M274.172 137.995L256.706 103.849C257.896 123.411 253.168 141.248 243.008 162L209.617 230.203H231.137C237.945 230.203 244.159 226.327 247.153 220.212L274.403 164.551C278.514 156.157 278.427 146.317 274.172 137.995Z" fill="url(#paint7_linear_21_3)"/>
</g>
</g>
</g>
</g>
</g>
<mask id="mask13_21_3" style="mask-type:luminance" maskUnits="userSpaceOnUse" x="280" y="98" width="93" height="214">
<path d="M326.75 98.0911C319.943 98.0911 313.731 101.968 310.736 108.08L283.483 163.744C279.375 172.139 279.461 181.977 283.717 190.299L345.624 311.33C314.791 251.051 312.384 220.438 333.613 177.078L372.284 98.0911H326.75Z" fill="white"/>
</mask>
<g mask="url(#mask13_21_3)">
<path d="M326.75 98.0911C319.943 98.0911 313.731 101.968 310.736 108.08L283.483 163.744C279.375 172.139 279.461 181.977 283.717 190.299L345.624 311.33C314.791 251.051 312.384 220.438 333.613 177.078L372.284 98.0911H326.75Z" fill="url(#paint8_linear_21_3)"/>
</g>
<mask id="mask14_21_3" style="mask-type:luminance" maskUnits="userSpaceOnUse" x="280" y="98" width="93" height="214">
<path d="M326.75 98.0911C319.943 98.0911 313.731 101.968 310.736 108.08L283.483 163.744C279.375 172.139 279.461 181.977 283.717 190.299L345.624 311.33C314.791 251.051 312.384 220.438 333.613 177.078L372.284 98.0911H326.75Z" fill="white"/>
</mask>
<g mask="url(#mask14_21_3)">
<mask id="mask15_21_3" style="mask-type:luminance" maskUnits="userSpaceOnUse" x="-69559" y="-67441" width="138142" height="138142">
<mask id="mask16_21_3" style="mask-type:luminance" maskUnits="userSpaceOnUse" x="-69559" y="-67441" width="138142" height="138142">
<path d="M-69558.4 -67440.6H68582.7V70700.5H-69558.4V-67440.6Z" fill="white"/>
</mask>
<g mask="url(#mask16_21_3)">
<path d="M-69558.4 -67440.6H68582.7V70700.5H-69558.4V-67440.6Z" fill="url(#paint9_linear_21_3)"/>
</g>
</mask>
<g mask="url(#mask15_21_3)">
<path d="M326.748 98.0889C319.942 98.0889 313.73 101.965 310.735 108.078L283.482 163.741C279.373 172.137 279.46 181.975 283.716 190.297L345.623 311.328C314.79 251.049 312.383 220.436 333.612 177.076L372.283 98.0889H326.748Z" fill="url(#paint10_linear_21_3)"/>
</g>
</g>
<mask id="mask17_21_3" style="mask-type:luminance" maskUnits="userSpaceOnUse" x="-487" y="-146" width="1256" height="1775">
<path d="M-486.779 -145.715H768.003V1628.9H-486.779V-145.715Z" fill="white"/>
</mask>
<g mask="url(#mask17_21_3)">
<mask id="mask18_21_3" style="mask-type:luminance" maskUnits="userSpaceOnUse" x="280" y="98" width="69" height="127">
<path d="M280.462 98.0912H348.271V224.445H280.462V98.0912Z" fill="white"/>
</mask>
<g mask="url(#mask18_21_3)">
<g opacity="0.320007">
<mask id="mask19_21_3" style="mask-type:luminance" maskUnits="userSpaceOnUse" x="280" y="98" width="69" height="127">
<path d="M283.715 190.297L301.183 224.445C299.99 204.884 304.718 187.047 314.88 166.292L348.269 98.0912H326.75C319.943 98.0912 313.731 101.968 310.736 108.083L283.483 163.744C279.375 172.137 279.461 181.977 283.715 190.297Z" fill="white"/>
</mask>
<g mask="url(#mask19_21_3)">
<mask id="mask20_21_3" style="mask-type:luminance" maskUnits="userSpaceOnUse" x="-69559" y="-67441" width="138142" height="138142">
<mask id="mask21_21_3" style="mask-type:luminance" maskUnits="userSpaceOnUse" x="-69559" y="-67441" width="138142" height="138142">
<path d="M-69558.4 -67440.6H68582.7V70700.5H-69558.4V-67440.6Z" fill="white"/>
</mask>
<g mask="url(#mask21_21_3)">
<path d="M-69558.4 -67440.6H68582.7V70700.5H-69558.4V-67440.6Z" fill="url(#paint11_linear_21_3)"/>
</g>
</mask>
<g mask="url(#mask20_21_3)">
<path d="M283.714 190.297L301.182 224.445C299.989 204.884 304.717 187.047 314.879 166.293L348.268 98.0915H326.749C319.942 98.0915 313.73 101.968 310.735 108.083L283.482 163.744C279.374 172.138 279.46 181.977 283.714 190.297Z" fill="url(#paint12_linear_21_3)"/>
</g>
</g>
</g>
</g>
</g>
<path d="M11.3483 151.947C9.88476 151.947 8.52572 151.686 7.27122 151.163C6.01672 150.588 4.91903 149.83 3.97816 148.889C3.03728 147.949 2.27935 146.851 1.70438 145.596C1.18167 144.342 0.920313 142.983 0.920313 141.519C0.920313 140.056 1.18167 138.697 1.70438 137.442C2.27935 136.188 3.03728 135.09 3.97816 134.149C4.91903 133.208 6.01672 132.476 7.27122 131.954C8.52572 131.379 9.88476 131.091 11.3483 131.091H58.9409C59.9864 131.091 60.875 131.457 61.6068 132.189C62.3386 132.921 62.7044 133.809 62.7044 134.855C62.7044 135.9 62.3386 136.789 61.6068 137.521C60.875 138.252 59.9864 138.618 58.9409 138.618H11.1915C10.4075 138.618 9.70181 138.906 9.07456 139.481C8.49959 140.003 8.2121 140.683 8.2121 141.519C8.2121 142.303 8.49959 142.983 9.07456 143.558C9.70181 144.133 10.4075 144.42 11.1915 144.42H54.5502C56.0138 144.42 57.3728 144.708 58.6273 145.283C59.9341 145.805 61.0579 146.537 61.9988 147.478C62.9397 148.419 63.6715 149.543 64.1942 150.85C64.7691 152.104 65.0566 153.463 65.0566 154.927C65.0566 156.39 64.7691 157.749 64.1942 159.004C63.6715 160.258 62.9397 161.356 61.9988 162.297C61.0579 163.238 59.9341 163.97 58.6273 164.492C57.3728 165.015 56.0138 165.276 54.5502 165.276H7.036C5.99058 165.276 5.10198 164.91 4.37019 164.179C3.6384 163.447 3.2725 162.558 3.2725 161.513C3.2725 160.467 3.6384 159.579 4.37019 158.847C5.10198 158.115 5.99058 157.749 7.036 157.749H54.8638C55.6479 157.749 56.3274 157.488 56.9024 156.965C57.4774 156.39 57.7649 155.711 57.7649 154.927C57.7649 154.09 57.4774 153.385 56.9024 152.81C56.3274 152.235 55.6479 151.947 54.8638 151.947H11.3483ZM128.955 144.42C130.001 144.42 130.889 144.786 131.621 145.518C132.353 146.25 132.719 147.138 132.719 148.184C132.719 149.229 132.353 150.118 131.621 150.85C130.889 151.581 130.001 151.947 128.955 151.947H89.909C88.8635 151.947 87.9749 151.581 87.2432 150.85C86.5114 150.118 86.1455 149.229 86.1455 148.184C86.1455 147.138 86.5114 146.25 87.2432 145.518C87.9749 144.786 88.8635 144.42 89.909 144.42H128.955ZM89.0465 138.618C87.217 138.618 85.7273 138.958 84.5773 139.637C83.4797 140.265 82.591 141.049 81.9115 141.99C81.2843 142.931 80.84 143.976 80.5786 145.126C80.3695 146.224 80.265 147.243 80.265 148.184C80.265 149.125 80.3695 150.17 80.5786 151.32C80.84 152.418 81.2843 153.437 81.9115 154.378C82.591 155.319 83.4797 156.129 84.5773 156.808C85.7273 157.436 87.217 157.749 89.0465 157.749H132.248C133.294 157.749 134.182 158.115 134.914 158.847C135.646 159.579 136.012 160.467 136.012 161.513C136.012 162.558 135.646 163.447 134.914 164.179C134.182 164.91 133.294 165.276 132.248 165.276H86.5375C84.3944 165.276 82.4865 164.754 80.8138 163.708C79.1412 162.663 77.7037 161.33 76.5015 159.709C75.3515 158.037 74.4629 156.181 73.8357 154.143C73.2084 152.104 72.8948 150.118 72.8948 148.184C72.8948 146.197 73.2084 144.211 73.8357 142.225C74.5152 140.186 75.4822 138.357 76.7367 136.736C77.9912 135.064 79.5071 133.705 81.2843 132.659C83.0615 131.614 85.0739 131.091 87.3216 131.091H132.248C133.294 131.091 134.182 131.457 134.914 132.189C135.646 132.921 136.012 133.809 136.012 134.855C136.012 135.9 135.646 136.789 134.914 137.521C134.182 138.252 133.294 138.618 132.248 138.618H89.0465ZM197.944 144.42C198.989 144.42 199.878 144.786 200.609 145.518C201.341 146.25 201.707 147.138 201.707 148.184C201.707 149.229 201.341 150.118 200.609 150.85C199.878 151.581 198.989 151.947 197.944 151.947H158.897C157.852 151.947 156.963 151.581 156.231 150.85C155.5 150.118 155.134 149.229 155.134 148.184C155.134 147.138 155.5 146.25 156.231 145.518C156.963 144.786 157.852 144.42 158.897 144.42H197.944ZM158.035 138.618C156.205 138.618 154.716 138.958 153.566 139.637C152.468 140.265 151.579 141.049 150.9 141.99C150.273 142.931 149.828 143.976 149.567 145.126C149.358 146.224 149.253 147.243 149.253 148.184C149.253 149.125 149.358 150.17 149.567 151.32C149.828 152.418 150.273 153.437 150.9 154.378C151.579 155.319 152.468 156.129 153.566 156.808C154.716 157.436 156.205 157.749 158.035 157.749H201.237C202.282 157.749 203.171 158.115 203.902 158.847C204.634 159.579 205 160.467 205 161.513C205 162.558 204.634 163.447 203.902 164.179C203.171 164.91 202.282 165.276 201.237 165.276H155.526C153.383 165.276 151.475 164.754 149.802 163.708C148.129 162.663 146.692 161.33 145.49 159.709C144.34 158.037 143.451 156.181 142.824 154.143C142.197 152.104 141.883 150.118 141.883 148.184C141.883 146.197 142.197 144.211 142.824 142.225C143.504 140.186 144.471 138.357 145.725 136.736C146.98 135.064 148.495 133.705 150.273 132.659C152.05 131.614 154.062 131.091 156.31 131.091H201.237C202.282 131.091 203.171 131.457 203.902 132.189C204.634 132.921 205 133.809 205 134.855C205 135.9 204.634 136.789 203.902 137.521C203.171 138.252 202.282 138.618 201.237 138.618H158.035Z" fill="#A54897"/>
<path d="M400.879 186.098C402.744 186.098 404.279 185.769 405.486 185.111C406.693 184.398 407.625 183.548 408.283 182.56C408.996 181.573 409.462 180.504 409.681 179.352C409.956 178.146 410.093 177.049 410.093 176.062C410.093 175.074 409.956 174.005 409.681 172.853C409.462 171.647 408.996 170.55 408.283 169.563C407.625 168.576 406.693 167.753 405.486 167.095C404.279 166.382 402.744 166.026 400.879 166.026H367.645C365.726 166.026 364.163 166.382 362.956 167.095C361.805 167.753 360.872 168.576 360.159 169.563C359.501 170.55 359.035 171.647 358.761 172.853C358.542 174.005 358.432 175.074 358.432 176.062C358.432 177.049 358.542 178.146 358.761 179.352C359.035 180.504 359.501 181.573 360.159 182.56C360.872 183.548 361.805 184.398 362.956 185.111C364.163 185.769 365.726 186.098 367.645 186.098H400.879ZM417.743 176.062C417.743 178.146 417.387 180.257 416.674 182.396C416.016 184.48 415.028 186.399 413.712 188.154C412.396 189.854 410.806 191.253 408.941 192.35C407.076 193.446 404.965 193.995 402.607 193.995H365.095C362.847 193.885 360.845 193.282 359.09 192.185C357.335 191.033 355.827 189.608 354.566 187.907C353.359 186.207 352.427 184.315 351.769 182.231C351.111 180.147 350.782 178.091 350.782 176.062C350.782 173.978 351.111 171.894 351.769 169.81C352.482 167.671 353.496 165.751 354.812 164.051C356.129 162.296 357.719 160.871 359.584 159.774C361.448 158.677 363.56 158.128 365.918 158.128H403.429C405.678 158.238 407.68 158.869 409.435 160.02C411.19 161.117 412.67 162.516 413.877 164.216C415.138 165.916 416.098 167.808 416.756 169.892C417.414 171.976 417.743 174.033 417.743 176.062ZM476.155 186.098C478.019 186.098 479.555 185.769 480.761 185.111C481.968 184.398 482.9 183.548 483.558 182.56C484.271 181.573 484.737 180.504 484.957 179.352C485.231 178.146 485.368 177.049 485.368 176.062C485.368 175.074 485.231 174.005 484.957 172.853C484.737 171.647 484.271 170.55 483.558 169.563C482.9 168.576 481.968 167.753 480.761 167.095C479.555 166.382 478.019 166.026 476.155 166.026H429.923C428.826 166.026 427.894 165.642 427.126 164.874C426.358 164.106 425.974 163.174 425.974 162.077C425.974 160.98 426.358 160.048 427.126 159.28C427.894 158.512 428.826 158.128 429.923 158.128H477.882C480.24 158.128 482.352 158.677 484.216 159.774C486.081 160.871 487.671 162.296 488.987 164.051C490.304 165.751 491.291 167.671 491.949 169.81C492.662 171.894 493.018 173.978 493.018 176.062C493.018 178.091 492.689 180.147 492.031 182.231C491.373 184.315 490.413 186.207 489.152 187.907C487.945 189.608 486.465 191.033 484.71 192.185C482.955 193.282 480.953 193.885 478.705 193.995H429.923C428.826 193.995 427.894 193.611 427.126 192.843C426.358 192.075 425.974 191.143 425.974 190.046V176.062C425.974 174.965 426.358 174.033 427.126 173.265C427.894 172.497 428.826 172.113 429.923 172.113C431.02 172.113 431.952 172.497 432.72 173.265C433.488 174.033 433.872 174.965 433.872 176.062V186.098H476.155ZM501.248 162.077C501.248 160.98 501.632 160.048 502.399 159.28C503.167 158.512 504.1 158.128 505.196 158.128H563.52C564.617 158.128 565.55 158.512 566.317 159.28C567.085 160.048 567.469 160.98 567.469 162.077C567.469 163.174 567.085 164.106 566.317 164.874C565.55 165.642 564.617 166.026 563.52 166.026H505.196C504.1 166.026 503.167 165.642 502.399 164.874C501.632 164.106 501.248 163.174 501.248 162.077ZM511.284 193.995C510.077 193.995 508.871 193.748 507.664 193.254C506.458 192.706 505.388 191.966 504.456 191.033C503.524 190.101 502.756 188.977 502.153 187.661C501.549 186.344 501.248 184.864 501.248 183.218V175.815C501.248 174.334 501.659 173.347 502.482 172.853C503.359 172.36 504.703 172.113 506.513 172.113H561.711C562.807 172.113 563.74 172.497 564.508 173.265C565.275 174.033 565.659 174.965 565.659 176.062C565.659 177.158 565.275 178.091 564.508 178.859C563.74 179.626 562.807 180.01 561.711 180.01H509.145V184.041C509.145 184.59 509.364 185.083 509.803 185.522C510.297 185.906 510.927 186.098 511.695 186.098H563.52C564.617 186.098 565.55 186.482 566.317 187.249C567.085 188.017 567.469 188.949 567.469 190.046C567.469 191.143 567.085 192.075 566.317 192.843C565.55 193.611 564.617 193.995 563.52 193.995H511.284Z" fill="#7C5DA4"/>
<defs>
<linearGradient id="paint0_linear_21_3" x1="146.931" y1="115.103" x2="277.426" y2="115.103" gradientUnits="userSpaceOnUse">
<stop stop-color="#5C4696"/>
<stop offset="0.999706" stop-color="#2B2051"/>
<stop offset="1" stop-color="#2B2051"/>
</linearGradient>
<linearGradient id="paint1_linear_21_3" x1="294.974" y1="116.969" x2="435.536" y2="310.436" gradientUnits="userSpaceOnUse">
<stop stop-color="#382052"/>
<stop offset="0.999706" stop-color="#B6549B"/>
<stop offset="1" stop-color="#B6549B"/>
</linearGradient>
<linearGradient id="paint2_linear_21_3" x1="280.462" y1="213.192" x2="410.957" y2="213.192" gradientUnits="userSpaceOnUse">
<stop stop-color="#382052"/>
<stop offset="1" stop-color="#E33A8D"/>
</linearGradient>
<linearGradient id="paint3_linear_21_3" x1="231.515" y1="230.204" x2="231.515" y2="16.9654" gradientUnits="userSpaceOnUse">
<stop stop-color="#755BA3"/>
<stop offset="0.999412" stop-color="#724E9A"/>
<stop offset="1" stop-color="#724E9A"/>
</linearGradient>
<linearGradient id="paint4_linear_21_3" x1="221.774" y1="130.979" x2="309.132" y2="159.266" gradientUnits="userSpaceOnUse">
<stop stop-color="white"/>
<stop offset="0.74334" stop-color="white" stop-opacity="0"/>
<stop offset="1" stop-color="white" stop-opacity="0"/>
</linearGradient>
<linearGradient id="paint5_linear_21_3" x1="221.771" y1="130.98" x2="309.128" y2="159.266" gradientUnits="userSpaceOnUse">
<stop stop-color="#7C5DA4"/>
<stop offset="0.74334" stop-color="#724E9A"/>
<stop offset="1" stop-color="#724E9A"/>
</linearGradient>
<linearGradient id="paint6_linear_21_3" x1="164.516" y1="133.266" x2="280.294" y2="190.223" gradientUnits="userSpaceOnUse">
<stop stop-color="white"/>
<stop offset="0.999411" stop-color="white" stop-opacity="0"/>
<stop offset="1" stop-color="white" stop-opacity="0"/>
</linearGradient>
<linearGradient id="paint7_linear_21_3" x1="164.522" y1="133.259" x2="280.299" y2="190.215" gradientUnits="userSpaceOnUse">
<stop stop-color="#5C4696"/>
<stop offset="0.999411" stop-color="#2B2051"/>
<stop offset="1" stop-color="#2B2051"/>
</linearGradient>
<linearGradient id="paint8_linear_21_3" x1="326.374" y1="311.329" x2="326.374" y2="98.0907" gradientUnits="userSpaceOnUse">
<stop stop-color="#95589F"/>
<stop offset="1" stop-color="#AF61A3"/>
</linearGradient>
<linearGradient id="paint9_linear_21_3" x1="255.628" y1="157.386" x2="413.06" y2="229.48" gradientUnits="userSpaceOnUse">
<stop stop-color="white"/>
<stop offset="1" stop-color="white" stop-opacity="0"/>
</linearGradient>
<linearGradient id="paint10_linear_21_3" x1="255.629" y1="157.393" x2="413.061" y2="229.486" gradientUnits="userSpaceOnUse">
<stop stop-color="#9A1A81"/>
<stop offset="1" stop-color="#AF61A3"/>
</linearGradient>
<linearGradient id="paint11_linear_21_3" x1="393.362" y1="195.038" x2="277.585" y2="138.082" gradientUnits="userSpaceOnUse">
<stop stop-color="white"/>
<stop offset="0.999411" stop-color="white" stop-opacity="0"/>
<stop offset="1" stop-color="white" stop-opacity="0"/>
</linearGradient>
<linearGradient id="paint12_linear_21_3" x1="393.365" y1="195.035" x2="277.587" y2="138.079" gradientUnits="userSpaceOnUse">
<stop stop-color="#5C4696"/>
<stop offset="0.999411" stop-color="#2B2051"/>
<stop offset="1" stop-color="#2B2051"/>
</linearGradient>
</defs>
</svg>
