<svg width="36" height="40" viewBox="0 0 36 40" fill="none" xmlns="http://www.w3.org/2000/svg">
<path d="M16.0495 0.160156H20.089V4.17638H21.0988C21.9023 4.17638 22.6729 4.49374 23.2411 5.05863C23.8092 5.62352 24.1284 6.38968 24.1284 7.18855V14.217L23.2398 15.1005L26.5521 20.8036C28.794 18.6147 30.1876 15.5825 30.1876 12.2088H34.2271C34.2271 17.0685 32.066 21.4261 28.6324 24.378L34.9744 35.3021L35.237 39.7602L31.4601 37.3103L25.2595 26.607C23.1186 27.6713 20.6545 28.2737 18.0692 28.2737C15.484 28.2737 13.0199 27.6713 10.879 26.607L4.67839 37.3103L0.901489 39.7602L1.16405 35.3021L12.8987 15.1005L12.01 14.217V7.18855C12.01 6.38968 12.3292 5.62352 12.8974 5.05863C13.4655 4.49374 14.2361 4.17638 15.0396 4.17638H16.0495V0.160156ZM12.8987 23.1129C14.4741 23.8559 16.2313 24.2575 18.0692 24.2575C19.9072 24.2575 21.6644 23.8559 23.2398 23.1129L20.2909 18.0324H20.2707C19.0185 19.2372 17.12 19.2372 15.8677 18.0324H15.8475L12.8987 23.1129ZM18.0692 8.19261C17.5336 8.19261 17.0198 8.40418 16.6411 8.78077C16.2623 9.15737 16.0495 9.66814 16.0495 10.2007C16.0495 10.7333 16.2623 11.2441 16.6411 11.6207C17.0198 11.9973 17.5336 12.2088 18.0692 12.2088C18.6049 12.2088 19.1186 11.9973 19.4974 11.6207C19.8762 11.2441 20.089 10.7333 20.089 10.2007C20.089 9.66814 19.8762 9.15737 19.4974 8.78077C19.1186 8.40418 18.6049 8.19261 18.0692 8.19261Z" fill="#4ECB71"/>
</svg>
