<svg width="40" height="40" viewBox="0 0 40 40" fill="none" xmlns="http://www.w3.org/2000/svg">
<path d="M7.30378 34.0214L4.52435 2.83521H35.0757L32.2926 34.0165L19.7815 37.4852L7.30378 34.0214Z" fill="#1572B6"/>
<path d="M19.8 34.8343L29.9104 32.0313L32.2889 5.3855H19.8V34.8343Z" fill="#33A9DC"/>
<path d="M19.8 16.6839H24.8614L25.2104 12.7673H19.8V8.94214H29.3907L29.2991 9.96803L28.3598 20.5091H19.8V16.6839Z" fill="white"/>
<path d="M19.8236 26.6173L19.8063 26.6222L15.5468 25.4713L15.2745 22.4209H11.4346L11.9704 28.4265L19.805 30.602L19.8236 30.5971V26.6173Z" fill="#EBEBEB"/>
<path d="M24.536 20.3469L24.0756 25.4689L19.81 26.6198V30.5996L27.6508 28.4266L27.7089 27.7806L28.3735 20.3469H24.536Z" fill="white"/>
<path d="M19.8137 8.94214V12.7673H10.5745L10.4978 11.9072L10.3233 9.96803L10.2317 8.94214H19.8137ZM19.8001 16.6839V20.5091H15.5938L15.5171 19.649L15.3438 17.7098L15.2523 16.6839H19.8001Z" fill="#EBEBEB"/>
</svg>
