<svg width="41" height="41" viewBox="0 0 41 41" fill="none" xmlns="http://www.w3.org/2000/svg">
<g clip-path="url(#clip0_118_142)">
<path d="M8.99348 32.4846L2.17958 25.7099C1.37133 24.8862 0.870667 23.7215 0.870667 22.5832C0.870667 22.0562 1.16939 21.2323 1.39482 20.7607L7.68457 7.73535L8.99348 32.4846Z" fill="#01579B"/>
<path d="M32.3164 9.03653L25.5025 2.26184C24.9082 1.66784 23.6694 0.960449 22.6211 0.960449C21.7193 0.960449 20.835 1.14097 20.264 1.48159L7.6875 7.73514L32.3164 9.03653ZM17.1163 40.5604H33.6253V33.5267L21.3094 29.6168L10.0418 33.5267L17.1163 40.5604Z" fill="#40C4FF"/>
<path d="M7.68457 28.8364C7.68457 30.9267 7.94813 31.4392 8.99349 32.4842L10.0418 33.5265H33.6253L22.0971 20.5012L7.68457 7.73486V28.8366V28.8364Z" fill="#29B6F6"/>
<path d="M28.6475 7.73242H7.68457L33.6253 33.5239H40.6998V17.3719L32.3135 9.03381C31.1363 7.8605 30.091 7.73242 28.6475 7.73242Z" fill="#01579B"/>
<path opacity="0.2" d="M9.25703 32.7433C8.20872 31.6983 7.94812 30.6676 7.94812 28.8364V7.99397L7.68752 7.73486V28.8362C7.6844 30.6674 7.6844 31.174 9.25703 32.7432V32.7433Z" fill="white"/>
<path opacity="0.2" d="M40.4392 17.1128V33.2648H33.3647L33.6253 33.5268H40.6998V17.3719L40.4392 17.1128Z" fill="#263238"/>
<path opacity="0.2" d="M32.3164 9.03674C31.0163 7.74401 29.9534 7.73535 28.3868 7.73535H7.6875L7.9481 7.99445H28.3868C29.1686 7.99445 31.1422 7.86343 32.3164 9.03674Z" fill="white"/>
<path opacity="0.2" d="M40.4396 17.1126L32.3168 9.03637L25.5029 2.26199C24.9086 1.66784 23.6698 0.960449 22.6215 0.960449C21.7197 0.960449 20.8354 1.14097 20.2644 1.48159L7.68789 7.73514L1.39815 20.7604C1.17256 21.235 0.87384 22.0589 0.87384 22.583C0.87384 23.7213 1.37762 24.8829 2.18291 25.7097L8.46083 31.908C8.61019 32.0913 8.786 32.2777 8.99386 32.4844L9.25446 32.7435L10.0392 33.5237L16.8531 40.2984L17.1137 40.5575H33.6196V33.5239H40.6941V17.3716L40.4394 17.1125L40.4396 17.1126Z" fill="url(#paint0_radial_118_142)"/>
</g>
<defs>
<radialGradient id="paint0_radial_118_142" cx="0" cy="0" r="1" gradientUnits="userSpaceOnUse" gradientTransform="translate(20.784 20.7568) scale(19.9117 19.7971)">
<stop stop-color="white" stop-opacity="0.1"/>
<stop offset="1" stop-color="white" stop-opacity="0"/>
</radialGradient>
<clipPath id="clip0_118_142">
<rect width="39.8292" height="39.6" fill="white" transform="translate(0.870667 0.960449)"/>
</clipPath>
</defs>
</svg>
