<svg width="40" height="41" viewBox="0 0 40 41" fill="none" xmlns="http://www.w3.org/2000/svg">
<g clip-path="url(#clip0_118_294)">
<path d="M30.3188 0.560059H9.28131C4.15542 0.560059 6.10352e-05 4.71542 6.10352e-05 9.84131V30.8788C6.10352e-05 36.0047 4.15542 40.1601 9.28131 40.1601H30.3188C35.4447 40.1601 39.6001 36.0047 39.6001 30.8788V9.84131C39.6001 4.71542 35.4447 0.560059 30.3188 0.560059Z" fill="#242938"/>
<mask id="mask0_118_294" style="mask-type:luminance" maskUnits="userSpaceOnUse" x="9" y="4" width="22" height="32">
<path d="M9.436 4.89136H30.0651V35.8289H9.436V4.89136Z" fill="white"/>
</mask>
<g mask="url(#mask0_118_294)">
<path d="M14.5944 35.8289C17.4406 35.8289 19.7506 33.519 19.7506 30.6727V25.5164H14.5944C11.7481 25.5164 9.43802 27.8265 9.43802 30.6727C9.43802 33.519 11.7481 35.8289 14.5944 35.8289Z" fill="#0ACF83"/>
<path d="M9.43802 20.3601C9.43802 17.5138 11.7481 15.2039 14.5944 15.2039H19.7506V25.5163H14.5944C11.7481 25.5163 9.43802 23.2063 9.43802 20.3601Z" fill="#A259FF"/>
<path d="M9.43829 10.0476C9.43829 7.20131 11.7484 4.89136 14.5946 4.89136H19.7508V15.2039H14.5946C11.7484 15.2039 9.43829 12.8938 9.43829 10.0476Z" fill="#F24E1E"/>
<path d="M19.7506 4.89136H24.9068C27.753 4.89136 30.0631 7.20131 30.0631 10.0476C30.0631 12.8938 27.753 15.2039 24.9068 15.2039H19.7506V4.89136Z" fill="#FF7262"/>
<path d="M30.0631 20.3601C30.0631 23.2063 27.753 25.5163 24.9068 25.5163C22.0605 25.5163 19.7506 23.2063 19.7506 20.3601C19.7506 17.5138 22.0605 15.2039 24.9068 15.2039C27.753 15.2039 30.0631 17.5138 30.0631 20.3601Z" fill="#1ABCFE"/>
</g>
</g>
<defs>
<clipPath id="clip0_118_294">
<rect width="39.6" height="39.6" fill="white" transform="translate(6.10352e-05 0.560059)"/>
</clipPath>
</defs>
</svg>
