<svg width="41" height="40" viewBox="0 0 41 40" fill="none" xmlns="http://www.w3.org/2000/svg">
<path d="M40.7119 3.43076V1.68506C40.3584 1.68353 40.0198 1.54363 39.7693 1.29566C39.5215 1.04648 39.382 0.710514 39.3809 0.360107L37.6218 0.360107C37.598 0.695776 37.4471 1.00998 37.1995 1.2394C36.9519 1.46881 36.626 1.59638 36.2875 1.59638C35.9491 1.59638 35.6232 1.46881 35.3756 1.2394C35.128 1.00998 34.9771 0.695776 34.9533 0.360107L33.1941 0.360107C33.1771 0.7005 33.029 1.02134 32.7807 1.25625C32.5323 1.49116 32.2027 1.62217 31.8599 1.62217C31.5171 1.62217 31.1874 1.49116 30.939 1.25625C30.6907 1.02134 30.5427 0.7005 30.5256 0.360107L28.7681 0.360107C28.7501 0.712225 28.5923 1.04285 28.3294 1.27948C28.0665 1.51611 27.72 1.63942 27.3658 1.62236C27.035 1.60486 26.7223 1.46621 26.4882 1.23314C26.2541 1.00006 26.1151 0.689067 26.0979 0.360107L24.3388 0.360107C24.318 0.69815 24.1683 1.01558 23.9202 1.24764C23.6721 1.4797 23.3443 1.60891 23.0037 1.60891C22.663 1.60891 22.3352 1.4797 22.0871 1.24764C21.839 1.01558 21.6893 0.69815 21.6686 0.360107L19.9128 0.360107C19.8957 0.7005 19.7477 1.02134 19.4993 1.25625C19.251 1.49116 18.9213 1.62217 18.5785 1.62217C18.2357 1.62217 17.906 1.49116 17.6577 1.25625C17.4093 1.02134 17.2613 0.7005 17.2442 0.360107L15.4851 0.360107C15.4808 0.533747 15.4419 0.70481 15.3705 0.863345C15.2991 1.02188 15.1968 1.16472 15.0694 1.28356C14.942 1.4024 14.7921 1.49487 14.6284 1.55558C14.4647 1.61629 14.2905 1.64404 14.116 1.63721C13.7785 1.62613 13.4579 1.48813 13.2188 1.25107C12.9798 1.01401 12.8402 0.695578 12.8282 0.360107L11.069 0.360107C11.0426 0.693663 10.8906 1.00504 10.6434 1.23213C10.3963 1.45922 10.0721 1.58534 9.73559 1.58534C9.39906 1.58534 9.0749 1.45922 8.82775 1.23213C8.5806 1.00504 8.42863 0.693663 8.40214 0.360107L6.64302 0.360107C6.64302 0.711725 6.50253 1.04894 6.25246 1.29757C6.00239 1.5462 5.66323 1.68588 5.30957 1.68588C4.95592 1.68588 4.61675 1.5462 4.36668 1.29757C4.11661 1.04894 3.97613 0.711725 3.97613 0.360107L2.21701 0.360107C2.2157 0.71082 2.0751 1.04682 1.82583 1.29497C1.57656 1.54312 1.23879 1.68332 0.886047 1.68506V3.42911C1.23156 3.44123 1.55885 3.58621 1.79896 3.83352C2.03908 4.08083 2.17328 4.41115 2.17328 4.75488C2.17328 5.09862 2.03908 5.42894 1.79896 5.67624C1.55885 5.92355 1.23156 6.06854 0.886047 6.08066V7.82966C1.2397 7.82966 1.57887 7.96934 1.82894 8.21797C2.07901 8.4666 2.21949 8.80381 2.21949 9.15543C2.21949 9.50705 2.07901 9.84427 1.82894 10.0929C1.57887 10.3415 1.2397 10.4812 0.886047 10.4812V12.2286C1.22841 12.2455 1.55111 12.3927 1.78738 12.6396C2.02365 12.8866 2.15542 13.2143 2.15542 13.5552C2.15542 13.896 2.02365 14.2237 1.78738 14.4707C1.55111 14.7176 1.22841 14.8648 0.886047 14.8818V16.6308C1.2397 16.6308 1.57887 16.7704 1.82894 17.0191C2.07901 17.2677 2.21949 17.6049 2.21949 17.9565C2.21949 18.3081 2.07901 18.6454 1.82894 18.894C1.57887 19.1426 1.2397 19.2823 0.886047 19.2823V21.0313C1.23948 21.0313 1.57844 21.1709 1.82835 21.4194C2.07826 21.6679 2.21866 22.0049 2.21866 22.3563C2.21866 22.7077 2.07826 23.0447 1.82835 23.2931C1.57844 23.5416 1.23948 23.6812 0.886047 23.6812V25.4302C1.23992 25.4302 1.5793 25.57 1.82952 25.8188C2.07975 26.0675 2.22032 26.405 2.22032 26.7568C2.22032 27.1086 2.07975 27.4461 1.82952 27.6949C1.5793 27.9436 1.23992 28.0834 0.886047 28.0834V29.8324C1.62289 29.8605 2.19709 30.4726 2.17054 31.2019C2.15977 31.5374 2.02103 31.8562 1.78248 32.0937C1.54393 32.3312 1.22344 32.4695 0.886047 32.4807V34.2313C1.23992 34.2313 1.5793 34.3711 1.82952 34.6199C2.07975 34.8686 2.22032 35.2061 2.22032 35.5579C2.22032 35.9097 2.07975 36.2472 1.82952 36.496C1.5793 36.7447 1.23992 36.8845 0.886047 36.8845V38.6335C1.2395 38.6344 1.57819 38.7745 1.82797 39.0231C2.07774 39.2718 2.21823 39.6087 2.21866 39.9601H3.97779C4.00427 39.6266 4.15624 39.3152 4.40339 39.0881C4.65054 38.861 4.9747 38.7349 5.31123 38.7349C5.64776 38.7349 5.97193 38.861 6.21908 39.0881C6.46622 39.3152 6.6182 39.6266 6.64468 39.9601H8.4038C8.42763 39.6244 8.57856 39.3102 8.82616 39.0808C9.07376 38.8514 9.39963 38.7238 9.73808 38.7238C10.0765 38.7238 10.4024 38.8514 10.65 39.0808C10.8976 39.3102 11.0485 39.6244 11.0724 39.9601H12.8298C12.8506 39.6221 13.0003 39.3046 13.2484 39.0726C13.4965 38.8405 13.8243 38.7113 14.1649 38.7113C14.5056 38.7113 14.8334 38.8405 15.0815 39.0726C15.3296 39.3046 15.4793 39.6221 15.5 39.9601H17.2592C17.2713 39.6166 17.4172 39.2912 17.6659 39.0524C17.9146 38.8137 18.2469 38.6803 18.5926 38.6803C18.9383 38.6803 19.2706 38.8137 19.5193 39.0524C19.768 39.2912 19.9139 39.6166 19.926 39.9601H21.6852C21.7117 39.6266 21.8636 39.3152 22.1108 39.0881C22.3579 38.861 22.6821 38.7349 23.0186 38.7349C23.3551 38.7349 23.6793 38.861 23.9265 39.0881C24.1736 39.3152 24.3256 39.6266 24.3521 39.9601H26.1095C26.1334 39.624 26.2845 39.3094 26.5324 39.0797C26.7803 38.85 27.1066 38.7222 27.4455 38.7222C27.7843 38.7222 28.1106 38.85 28.3585 39.0797C28.6064 39.3094 28.7576 39.624 28.7814 39.9601H30.5372C30.561 39.624 30.7122 39.3094 30.9601 39.0797C31.208 38.85 31.5343 38.7222 31.8731 38.7222C32.212 38.7222 32.5383 38.85 32.7862 39.0797C33.0341 39.3094 33.1852 39.624 33.2091 39.9601H34.9665C34.9836 39.6201 35.1315 39.2997 35.3795 39.0651C35.6275 38.8305 35.9568 38.6997 36.2992 38.6997C36.6415 38.6997 36.9708 38.8305 37.2188 39.0651C37.4669 39.2997 37.6147 39.6201 37.6318 39.9601H39.3809C39.3809 39.6136 39.5237 39.2704 39.7709 39.0229C40.0213 38.7762 40.3594 38.6375 40.7119 38.6368V36.8878C40.3747 36.8641 40.0591 36.7143 39.8286 36.4684C39.5982 36.2225 39.4701 35.8989 39.4701 35.5629C39.4701 35.2268 39.5982 34.9032 39.8286 34.6573C40.0591 34.4115 40.3747 34.2616 40.7119 34.2379V32.4889C40.3695 32.4719 40.0468 32.3247 39.8106 32.0778C39.5743 31.8309 39.4425 31.5031 39.4425 31.1623C39.4425 30.8215 39.5743 30.4937 39.8106 30.2468C40.0468 29.9999 40.3695 29.8527 40.7119 29.8357V28.0867C40.3743 28.063 40.0583 27.913 39.8275 27.6668C39.5968 27.4206 39.4685 27.0966 39.4685 26.7601C39.4685 26.4236 39.5968 26.0996 39.8275 25.8534C40.0583 25.6073 40.3743 25.4572 40.7119 25.4335V23.6829C40.358 23.6829 40.0186 23.5431 39.7684 23.2943C39.5182 23.0455 39.3776 22.7081 39.3776 22.3563C39.3776 22.0044 39.5182 21.667 39.7684 21.4182C40.0186 21.1694 40.358 21.0297 40.7119 21.0297V19.2856C40.3743 19.2619 40.0583 19.1119 39.8275 18.8657C39.5968 18.6195 39.4685 18.2955 39.4685 17.959C39.4685 17.6225 39.5968 17.2985 39.8275 17.0523C40.0583 16.8062 40.3743 16.6561 40.7119 16.6324V14.8834C40.3664 14.8713 40.0391 14.7263 39.799 14.479C39.5589 14.2317 39.4247 13.9014 39.4247 13.5576C39.4247 13.2139 39.5589 12.8836 39.799 12.6363C40.0391 12.389 40.3664 12.244 40.7119 12.2319V10.4829C40.3747 10.4592 40.0591 10.3093 39.8286 10.0634C39.5982 9.81757 39.4701 9.49398 39.4701 9.15791C39.4701 8.82183 39.5982 8.49825 39.8286 8.25238C40.0591 8.00651 40.3747 7.85663 40.7119 7.83296V6.08396C40.3743 6.06027 40.0583 5.91021 39.8275 5.66403C39.5968 5.41785 39.4685 5.09386 39.4685 4.75736C39.4685 4.42085 39.5968 4.09686 39.8275 3.85068C40.0583 3.60451 40.3743 3.45445 40.7119 3.43076ZM33.9625 19.6602L23.3381 29.9281C24.3006 30.0766 25.23 30.2994 26.229 30.2994C28.6586 30.2994 31.4516 29.5651 33.3402 28.788L32.371 33.3172C29.5913 34.6455 27.8902 34.7527 26.229 34.7527C24.4118 34.7527 22.6709 34.1653 20.8936 34.1653C19.8945 34.1653 18.449 34.2396 17.5612 34.8253L15.6361 31.4395L26.5958 20.6485H13.9832L11.5769 31.8784H6.31609L11.7992 6.18131H29.2029L28.091 11.3706H15.9813L14.9457 16.1952H34.8155L33.9625 19.6602Z" fill="#F24E1E"/>
</svg>
