<svg width="44" height="44" viewBox="0 0 44 44" fill="none" xmlns="http://www.w3.org/2000/svg">
<path d="M7.97507 33.8252L8.20882 33.4993L19.2363 12.5801L19.2597 12.3587L14.3991 3.22872C14.3101 3.06177 14.1709 2.92702 14.0011 2.84354C13.8313 2.76006 13.6396 2.73207 13.453 2.76355C13.2665 2.79502 13.0945 2.88435 12.9615 3.01891C12.8285 3.15347 12.7412 3.32644 12.7119 3.51335L7.97507 33.8252Z" fill="#FFC24A"/>
<path d="M8.11255 33.5773L8.28855 33.2335L19.2019 12.5315L14.3537 3.36576C14.2737 3.20636 14.1443 3.07716 13.9847 2.99751C13.8252 2.91786 13.6441 2.89205 13.4687 2.92395C13.2932 2.95585 13.1328 3.04374 13.0115 3.17446C12.8902 3.30517 12.8145 3.47167 12.7958 3.64901L8.11255 33.5773Z" fill="#FFA712"/>
<path d="M22.8031 19.2638L26.4221 15.5513L22.8017 8.64742C22.722 8.49883 22.6035 8.37464 22.4588 8.28806C22.3142 8.20148 22.1487 8.15576 21.9801 8.15576C21.8115 8.15576 21.6461 8.20148 21.5014 8.28806C21.3567 8.37464 21.2382 8.49883 21.1586 8.64742L19.2239 12.3352V12.65L22.8031 19.2638Z" fill="#F4BD62"/>
<path d="M22.7384 19.1124L26.257 15.5099L22.7384 8.79994C22.6808 8.65469 22.5825 8.52921 22.4552 8.43861C22.3279 8.34802 22.1771 8.29618 22.021 8.28935C21.8649 8.28252 21.7101 8.32099 21.5754 8.40011C21.4407 8.47924 21.3317 8.59565 21.2617 8.73531L19.3174 12.4877L19.2597 12.6788L22.7384 19.1124Z" fill="#FFA50E"/>
<path d="M7.97781 33.8263L8.08369 33.7191L8.46731 33.5637L22.5748 19.5085L22.7536 19.0217L19.2349 12.3145L7.97781 33.8263Z" fill="#F6820C"/>
<path d="M23.2541 40.9144L36.0251 33.7933L32.3758 11.3382C32.3497 11.1799 32.2804 11.0319 32.1756 10.9104C32.0708 10.7889 31.9346 10.6986 31.7819 10.6494C31.6292 10.6003 31.4658 10.5941 31.3099 10.6317C31.1539 10.6693 31.0113 10.7491 30.8977 10.8624L7.97507 33.8249L20.6704 40.9131C21.0651 41.1333 21.5096 41.2489 21.9616 41.2489C22.4135 41.2489 22.858 41.1333 23.2527 40.9131" fill="#FDE068"/>
<path d="M35.9082 33.7344L32.2892 11.4484C32.2828 11.297 32.2316 11.1509 32.1422 11.0286C32.0527 10.9063 31.929 10.8132 31.7866 10.7613C31.6443 10.7093 31.4897 10.7007 31.3425 10.7367C31.1952 10.7726 31.062 10.8514 30.9595 10.963L8.11255 33.7826L20.6677 40.7951C21.0592 41.0135 21.5001 41.1282 21.9485 41.1282C22.3968 41.1282 22.8377 41.0135 23.2293 40.7951L35.9082 33.7344Z" fill="#FCCA3F"/>
<path d="M23.2541 40.7002C22.8594 40.9204 22.4149 41.0361 21.9629 41.0361C21.511 41.0361 21.0665 40.9204 20.6718 40.7002L8.07957 33.7179L7.97507 33.8252L20.6704 40.9133C21.0651 41.1336 21.5096 41.2492 21.9616 41.2492C22.4135 41.2492 22.858 41.1336 23.2527 40.9133L36.0251 33.7936L35.9934 33.6011L23.2541 40.7002Z" fill="#EEAB37"/>
</svg>
