<svg width="40" height="41" viewBox="0 0 40 41" fill="none" xmlns="http://www.w3.org/2000/svg">
<path d="M39.9418 8.47198C39.9416 7.01126 39.5347 5.57911 38.7662 4.33414C37.9978 3.08918 36.8977 2.07999 35.5879 1.41835C34.2781 0.756719 32.8096 0.468461 31.3451 0.585506C29.8807 0.702552 28.4774 1.22033 27.2907 2.0815C26.104 2.94267 25.1802 4.11362 24.6217 5.46465C24.0631 6.81568 23.8915 8.29406 24.126 9.73606C24.3605 11.1781 24.9918 12.5274 25.9501 13.6346C26.9084 14.7418 28.1563 15.5637 29.5554 16.0092C29.4574 16.5577 29.1685 17.0544 28.7392 17.4124C28.31 17.7704 27.7678 17.967 27.2076 17.9677H12.8816C12.0672 17.9638 11.2586 18.1045 10.4939 18.3831V16.029C12.3078 15.4618 13.8576 14.2677 14.8626 12.6628C15.8676 11.0578 16.2615 9.14818 15.9729 7.2795C15.6844 5.41083 14.7324 3.70662 13.2894 2.4754C11.8464 1.24417 10.0078 0.567288 8.10624 0.567288C6.20473 0.567288 4.36605 1.24417 2.92305 2.4754C1.48005 3.70662 0.528109 5.41083 0.239539 7.2795C-0.0490302 9.14818 0.344848 11.0578 1.34987 12.6628C2.3549 14.2677 3.90465 15.4618 5.71858 16.029V24.6543C3.9 25.2183 2.34443 26.4107 1.3331 28.0158C0.321772 29.6209 -0.07856 31.5328 0.204484 33.4058C0.487527 35.2789 1.43527 36.9894 2.87635 38.2282C4.31743 39.4669 6.15674 40.1522 8.06173 40.16C9.96673 40.1678 11.8117 39.4977 13.263 38.2708C14.7143 37.0439 15.6763 35.3413 15.9749 33.4706C16.2735 31.6 15.889 29.6849 14.8911 28.0715C13.8931 26.4581 12.3475 25.253 10.5337 24.674C10.6317 24.1256 10.9207 23.6289 11.3499 23.2708C11.7791 22.9128 12.3213 22.7162 12.8816 22.7155H27.2076C29.0304 22.7139 30.784 22.0214 32.1112 20.779C33.4384 19.5366 34.2393 17.838 34.3507 16.029C35.9697 15.5241 37.3847 14.5192 38.3902 13.1603C39.3956 11.8013 39.9391 10.159 39.9418 8.47198ZM8.10624 5.30675C8.73589 5.30675 9.35139 5.49239 9.87493 5.84019C10.3985 6.18799 10.8065 6.68233 11.0475 7.2607C11.2884 7.83907 11.3515 8.47549 11.2286 9.08949C11.1058 9.70349 10.8026 10.2675 10.3574 10.7101C9.91212 11.1528 9.34487 11.4543 8.72732 11.5764C8.10977 11.6985 7.46966 11.6358 6.88795 11.3963C6.30623 11.1567 5.80903 10.751 5.45921 10.2305C5.1094 9.70997 4.92269 9.09801 4.92269 8.47198C4.92269 7.63251 5.2581 6.82742 5.85513 6.23382C6.45216 5.64023 7.26191 5.30675 8.10624 5.30675ZM8.10624 35.3765C7.47659 35.3765 6.86109 35.1909 6.33755 34.8431C5.81402 34.4953 5.40598 34.0009 5.16502 33.4225C4.92406 32.8442 4.86102 32.2077 4.98386 31.5937C5.1067 30.9798 5.4099 30.4158 5.85513 29.9731C6.30036 29.5304 6.86761 29.229 7.48516 29.1068C8.10271 28.9847 8.74281 29.0474 9.32453 29.287C9.90625 29.5265 10.4035 29.9322 10.7533 30.4527C11.1031 30.9733 11.2898 31.5852 11.2898 32.2113C11.2898 33.0507 10.9544 33.8558 10.3574 34.4494C9.76032 35.043 8.95057 35.3765 8.10624 35.3765ZM31.9829 11.6372C31.3532 11.6372 30.7377 11.4516 30.2142 11.1038C29.6907 10.756 29.2826 10.2616 29.0417 9.68327C28.8007 9.10489 28.7377 8.46847 28.8605 7.85448C28.9833 7.24048 29.2865 6.67649 29.7318 6.23382C30.177 5.79116 30.7443 5.4897 31.3618 5.36757C31.9794 5.24544 32.6195 5.30812 33.2012 5.54769C33.7829 5.78726 34.2801 6.19295 34.6299 6.71347C34.9797 7.23399 35.1664 7.84596 35.1664 8.47198C35.1664 9.31146 34.831 10.1165 34.234 10.7101C33.637 11.3037 32.8272 11.6372 31.9829 11.6372Z" fill="#545454"/>
</svg>
