<svg width="41" height="40" viewBox="0 0 41 40" fill="none" xmlns="http://www.w3.org/2000/svg">
<path d="M20.5055 0.320068C9.50805 0.320068 0.590942 9.41569 0.590942 20.6239C0.590942 29.5958 6.2986 37.1976 14.2111 39.8847C14.3221 39.9087 14.4354 39.9205 14.5489 39.9201C15.2868 39.9201 15.5713 39.3809 15.5713 38.9124C15.5713 38.4262 15.5536 37.1534 15.5447 35.4562C14.8859 35.6098 14.212 35.6898 13.5354 35.6949C9.70364 35.6949 8.83238 32.7337 8.83238 32.7337C7.92555 30.3913 6.61866 29.7637 6.61866 29.7637C4.88502 28.5527 6.60977 28.5174 6.74313 28.5174H6.75202C8.75237 28.6942 9.80144 30.6211 9.80144 30.6211C10.7972 32.3536 12.1307 32.8398 13.3221 32.8398C14.1098 32.8241 14.8853 32.6434 15.598 32.3094C15.7758 31.0012 16.2915 30.1085 16.8604 29.5958C12.4419 29.0831 7.7922 27.3418 7.7922 19.5632C7.7922 17.3445 8.56567 15.5325 9.837 14.1182C9.63252 13.6055 8.94795 11.5371 10.0326 8.74391C10.1781 8.70929 10.3276 8.69443 10.4771 8.69971C11.1972 8.69971 12.8242 8.97373 15.5091 10.83C18.7715 9.92246 22.2218 9.92246 25.4842 10.83C28.1691 8.97373 29.796 8.69971 30.5162 8.69971C30.6657 8.69443 30.8152 8.70929 30.9607 8.74391C32.0453 11.5371 31.3608 13.6055 31.1563 14.1182C32.4276 15.5413 33.2011 17.3534 33.2011 19.5632C33.2011 27.3594 28.5425 29.0743 24.1062 29.5781C24.8174 30.2057 25.4575 31.4432 25.4575 33.3348C25.4575 36.0485 25.4308 38.2406 25.4308 38.9035C25.4308 39.3809 25.7064 39.9201 26.4443 39.9201C26.5638 39.9206 26.683 39.9087 26.8 39.8847C34.7213 37.1976 40.4201 29.5869 40.4201 20.6239C40.4201 9.41569 31.503 0.320068 20.5055 0.320068Z" fill="#545454"/>
</svg>
