<svg width="40" height="41" viewBox="0 0 40 41" fill="none" xmlns="http://www.w3.org/2000/svg">
<path d="M7.30379 34.2214L4.52313 3.03516H35.077L32.2926 34.2164L19.7815 37.6852L7.30379 34.2214Z" fill="#E44F26"/>
<path d="M19.8 35.0342L29.9104 32.2313L32.2889 5.58545H19.8V35.0342Z" fill="#F1662A"/>
<path d="M19.8001 17.1512H14.7387L14.3897 13.2345H19.8001V9.40942H10.2094L10.301 10.4365L11.2403 20.9763H19.8001V17.1512ZM19.8001 27.0846L19.7827 27.0896L15.5233 25.9399L15.251 22.8895H11.4111L11.9469 28.8939L19.7827 31.0694L19.8001 31.0644V27.0846Z" fill="#EBEBEB"/>
<path d="M19.7864 17.1512V20.9763H24.4964L24.0533 25.9375L19.7864 27.0883V31.0681L27.6285 28.8939L27.6854 28.2479L28.5838 18.1783L28.6779 17.1512H19.7864ZM19.7864 9.40942V13.2345H29.0256L29.1023 12.3757L29.2768 10.4365L29.3684 9.40942H19.7864Z" fill="white"/>
</svg>
