<svg width="40" height="40" viewBox="0 0 40 40" fill="none" xmlns="http://www.w3.org/2000/svg">
<path d="M30.3188 0.160156H9.28131C4.15542 0.160156 6.10352e-05 4.31551 6.10352e-05 9.44141V30.4789C6.10352e-05 35.6048 4.15542 39.7602 9.28131 39.7602H30.3188C35.4447 39.7602 39.6001 35.6048 39.6001 30.4789V9.44141C39.6001 4.31551 35.4447 0.160156 30.3188 0.160156Z" fill="#F0DB4F"/>
<path d="M10.4124 33.2526L13.4427 31.4187C14.0274 32.4552 14.5592 33.3323 15.835 33.3323C17.0578 33.3323 17.8287 32.854 17.8287 30.9934V18.3403H21.5502V31.046C21.5502 34.9004 19.2908 36.6548 15.9944 36.6548C13.0175 36.6548 11.2895 35.1131 10.4122 33.2523M23.5715 32.8538L26.6015 31.0995C27.3992 32.4022 28.436 33.3591 30.2699 33.3591C31.812 33.3591 32.7952 32.5881 32.7952 31.5248C32.7952 30.2489 31.7851 29.7969 30.0838 29.0529L29.1537 28.6539C26.4688 27.5111 24.6877 26.0756 24.6877 23.0453C24.6877 20.2541 26.8144 18.1274 30.1372 18.1274C32.503 18.1274 34.2043 18.9516 35.4269 21.1047L32.5295 22.9654C31.8914 21.8225 31.2005 21.3706 30.1372 21.3706C29.0473 21.3706 28.3561 22.0618 28.3561 22.9654C28.3561 24.0818 29.0473 24.5338 30.6421 25.2251L31.5724 25.6238C34.7356 26.9796 36.5167 28.3616 36.5167 31.4716C36.5167 34.8212 33.8851 36.6551 30.3497 36.6551C26.8942 36.6551 24.6613 35.0071 23.5715 32.8538Z" fill="#323330"/>
</svg>
