<svg width="43" height="41" viewBox="0 0 43 41" fill="none" xmlns="http://www.w3.org/2000/svg">
<g clip-path="url(#clip0_118_328)">
<path d="M30.1461 15.5564H41.1024C42.1376 15.5564 42.9767 16.3956 42.9767 17.4307V27.4104C42.9767 31.2146 39.8927 34.2988 36.0884 34.2988H36.0558C32.2516 34.2993 29.1671 31.2158 29.1666 27.4114V16.5361C29.1665 16.4075 29.1919 16.2801 29.2411 16.1612C29.2903 16.0423 29.3625 15.9343 29.4534 15.8434C29.5444 15.7524 29.6524 15.6802 29.7712 15.631C29.8901 15.5817 30.0175 15.5564 30.1461 15.5564Z" fill="#5059C9"/>
<path d="M37.5513 13.5838C40.0029 13.5838 41.9903 11.5964 41.9903 9.14482C41.9903 6.69322 40.0029 4.70581 37.5513 4.70581C35.0997 4.70581 33.1123 6.69322 33.1123 9.14482C33.1123 11.5964 35.0997 13.5838 37.5513 13.5838Z" fill="#5059C9"/>
<path d="M23.7412 13.5838C27.2824 13.5838 30.1531 10.7131 30.1531 7.1719C30.1531 3.63071 27.2824 0.76001 23.7412 0.76001C20.2 0.76001 17.3293 3.63071 17.3293 7.1719C17.3293 10.7131 20.2 13.5838 23.7412 13.5838Z" fill="#7B83EB"/>
<path d="M32.2907 15.5564H14.2054C13.1826 15.5817 12.3735 16.4306 12.3972 17.4534V28.8358C12.2544 34.9737 17.1103 40.0671 23.2479 40.2174C29.3856 40.0671 34.2415 34.9737 34.0988 28.8358V17.4534C34.1225 16.4306 33.3135 15.5817 32.2907 15.5564Z" fill="#7B83EB"/>
<path opacity="0.1" d="M24.2345 15.5564V31.5071C24.2321 31.8648 24.1241 32.2139 23.924 32.5105C23.724 32.8071 23.4408 33.038 23.1099 33.1743C22.8945 33.2654 22.6631 33.3123 22.4293 33.3123H13.2651C13.1369 32.9867 13.0186 32.6611 12.9198 32.3259C12.5745 31.194 12.3984 30.0173 12.3971 28.8338V17.4504C12.3734 16.4293 13.1811 15.5817 14.2022 15.5566H24.2343L24.2345 15.5564Z" fill="black"/>
<path opacity="0.2" d="M23.248 15.5564V32.4936C23.248 32.7274 23.2011 32.9589 23.1099 33.1743C22.9737 33.5051 22.7428 33.7883 22.4462 33.9884C22.1496 34.1884 21.8005 34.2964 21.4428 34.2988H13.729C13.5614 33.9732 13.4035 33.6476 13.2654 33.3123C13.1329 32.9899 13.0176 32.6606 12.9201 32.3259C12.5748 31.194 12.3987 30.0173 12.3974 28.8338V17.4504C12.3737 16.4293 13.1814 15.5817 14.2026 15.5566H23.2481L23.248 15.5564Z" fill="black"/>
<path opacity="0.2" d="M23.2479 15.5564V30.5207C23.2405 31.5145 22.4367 32.3185 21.4427 32.3259H12.92C12.5747 31.194 12.3985 30.0173 12.3972 28.8338V17.4504C12.3735 16.4293 13.1813 15.5817 14.2024 15.5566L23.2479 15.5564Z" fill="black"/>
<path opacity="0.2" d="M22.2616 15.5564V30.5207C22.254 31.5145 21.4502 32.3185 20.4564 32.3259H12.92C12.5747 31.194 12.3985 30.0173 12.3972 28.8338V17.4504C12.3735 16.4293 13.1813 15.5817 14.2024 15.5566L22.2616 15.5564Z" fill="black"/>
<path opacity="0.1" d="M24.2345 10.4568V13.564C24.0668 13.5739 23.9089 13.5839 23.7412 13.5839C23.5735 13.5839 23.4156 13.5739 23.248 13.564C22.915 13.5419 22.5848 13.4891 22.2616 13.4063C21.2768 13.1731 20.3612 12.7101 19.5897 12.0551C18.8182 11.4002 18.2126 10.572 17.8226 9.63813C17.6865 9.31999 17.5808 8.98968 17.507 8.65161H22.4293C23.4246 8.65542 24.2307 9.46134 24.2345 10.4568Z" fill="black"/>
<path opacity="0.2" d="M23.248 11.443V13.5638C22.915 13.5417 22.5848 13.4889 22.2616 13.4061C21.2768 13.1728 20.3613 12.7098 19.5898 12.0549C18.8183 11.4 18.2128 10.5718 17.8228 9.63794H21.4428C22.4382 9.64158 23.2441 10.4477 23.248 11.443Z" fill="black"/>
<path opacity="0.2" d="M23.248 11.443V13.5638C22.915 13.5417 22.5848 13.4889 22.2616 13.4061C21.2768 13.1728 20.3613 12.7098 19.5898 12.0549C18.8183 11.4 18.2128 10.5718 17.8228 9.63794H21.4428C22.4382 9.64158 23.2441 10.4477 23.248 11.443Z" fill="black"/>
<path opacity="0.2" d="M22.2616 11.4431V13.4062C21.2768 13.173 20.3612 12.71 19.5897 12.055C18.8181 11.4001 18.2126 10.5718 17.8226 9.63794H20.4564C21.4519 9.64175 22.2578 10.4478 22.2616 11.4431Z" fill="black"/>
<path d="M2.36815 9.63786H20.4532C21.452 9.63786 22.2616 10.4474 22.2616 11.446V29.5313C22.2616 30.5299 21.452 31.3395 20.4534 31.3395H2.36815C1.36953 31.3395 0.559967 30.5299 0.559967 29.5313V11.4462C0.559967 10.4473 1.36953 9.63786 2.36815 9.63786Z" fill="url(#paint0_linear_118_328)"/>
<path d="M16.1693 16.5213H12.5539V26.366H10.2507V16.5213H6.65222V14.6116H16.1693V16.5213Z" fill="white"/>
</g>
<defs>
<linearGradient id="paint0_linear_118_328" x1="4.32997" y1="8.22491" x2="18.4918" y2="32.7522" gradientUnits="userSpaceOnUse">
<stop stop-color="#5A62C3"/>
<stop offset="0.5" stop-color="#4D55BD"/>
<stop offset="1" stop-color="#3940AB"/>
</linearGradient>
<clipPath id="clip0_118_328">
<rect width="42.4167" height="39.6" fill="white" transform="translate(0.559967 0.76001)"/>
</clipPath>
</defs>
</svg>
