<svg width="19" height="41" viewBox="0 0 19 41" fill="none" xmlns="http://www.w3.org/2000/svg">
<path d="M18.2157 16.5188C16.1173 7.31555 11.7441 4.86549 10.6285 3.13359C10.1684 2.37063 9.76086 1.57754 9.4087 0.759766C9.34975 1.57751 9.24141 2.09231 8.54241 2.71244C7.13903 3.95648 1.1786 8.78569 0.676947 19.2427C0.209551 28.9926 7.88603 35.0045 8.90008 35.626C9.67993 36.0075 10.6297 35.6341 11.0931 35.2838C14.7934 32.7589 19.8493 26.0273 18.2197 16.5188" fill="#10AA50"/>
<path d="M9.72657 30.4346C9.5334 32.8478 9.39499 34.25 8.9043 35.6291C8.9043 35.6291 9.22632 37.9265 9.45254 40.3601H10.2529C10.4438 38.6463 10.7353 36.9451 11.126 35.2652C10.0898 34.7583 9.7664 32.5522 9.72657 30.4346Z" fill="#B8C4C2"/>
<path d="M11.1246 35.2661C10.0775 34.7852 9.77455 32.5326 9.72795 30.4341C9.98682 26.9725 10.0623 23.4998 9.95418 20.0302C9.89922 18.2098 9.98007 3.16895 9.50311 0.966797C9.82942 1.71264 10.2054 2.43602 10.6285 3.13212C11.7441 4.86542 16.1187 7.31547 18.2157 16.5187C19.8493 26.011 14.8209 32.7248 11.1246 35.2661Z" fill="#12924F"/>
</svg>
