<svg width="40" height="28" viewBox="0 0 40 28" fill="none" xmlns="http://www.w3.org/2000/svg">
<g clip-path="url(#clip0_118_253)">
<path d="M11.7803 18.612L12.9838 22.5168C13.2542 23.4034 13.3669 24.0223 13.3217 24.3751C13.9799 22.6123 14.4398 20.6912 14.7015 18.612H16.1486C15.5264 21.997 14.7057 24.4568 13.687 25.9913C12.8933 27.1738 12.0238 27.7651 11.0769 27.7651C10.8245 27.7651 10.5132 27.6888 10.1439 27.5374V26.7214C10.3244 26.7478 10.5361 26.762 10.7795 26.762C11.2212 26.762 11.5773 26.6396 11.8481 26.3952C12.1724 26.0975 12.3348 25.7629 12.3348 25.3921C12.3348 25.1389 12.2082 24.6192 11.9561 23.8331L10.2793 18.612H11.7803ZM2.56965 16.2119L4.77395 22.9374H4.78756L7.00539 16.2119H8.8174C9.21418 19.5473 9.44853 22.599 9.52046 25.3652H7.99276C7.93901 22.7794 7.79012 20.3479 7.54665 18.0702H7.53334L5.207 25.3652H4.04359L1.73132 18.0702H1.71771C1.54616 20.2576 1.43819 22.6891 1.39318 25.3652H6.10352e-05C0.0900892 22.1106 0.315392 19.0598 0.675968 16.2119H2.56965Z" fill="#00758F"/>
<path d="M27.2636 16.0758C29.6347 16.0758 30.8203 17.5906 30.8203 20.6189C30.8203 22.2644 30.4637 23.5074 29.7513 24.3471C29.6229 24.5006 29.481 24.6332 29.3316 24.756L31.0096 25.5856L31.0079 25.5856L30.4121 26.6144L28.227 25.3394C27.8648 25.4467 27.4662 25.5002 27.0319 25.5002C25.8677 25.5002 24.998 25.1609 24.423 24.4832C23.7919 23.7334 23.4765 22.5531 23.4765 20.9442C23.4765 19.3079 23.8324 18.0696 24.5451 17.2288C25.1942 16.4597 26.1005 16.0758 27.2636 16.0758ZM20.0025 16.0891C20.85 16.0891 21.6206 16.3158 22.3146 16.7678L21.9621 17.5533C21.3682 17.3009 20.7826 17.1741 20.2052 17.1741C19.7366 17.1741 19.3756 17.2869 19.1239 17.5138C18.8708 17.7387 18.7143 18.0281 18.7143 18.381C18.7143 18.9232 19.1005 19.3933 19.8137 19.7906C20.0474 19.9183 20.2802 20.0475 20.5122 20.1781L20.5654 20.2081L20.5921 20.2231L20.6454 20.253L20.672 20.268L20.7252 20.298C21.2651 20.6024 21.7731 20.8929 21.7731 20.8929C22.4862 21.3991 22.8417 21.9388 22.8417 22.8277C22.8417 23.604 22.5572 24.2412 21.9901 24.7399C21.4226 25.2363 20.6603 25.4852 19.7055 25.4852C18.8126 25.4852 17.9472 25.1987 17.1089 24.6305L17.5011 23.8442C18.2225 24.2058 18.8752 24.3864 19.4614 24.3864C20.0112 24.3864 20.4415 24.2637 20.7528 24.0213C21.0635 23.7771 21.2497 23.4366 21.2497 23.0048C21.2497 22.4613 20.8716 21.9967 20.1781 21.6069C19.961 21.487 19.7446 21.3659 19.5288 21.2436L19.4757 21.2135C19.3781 21.1584 19.2798 21.1026 19.1835 21.0479L19.1313 21.0182C18.6629 20.7518 18.258 20.5191 18.258 20.5191C17.5647 20.0119 17.2171 19.4678 17.2171 18.5713C17.2171 17.8298 17.4763 17.2304 17.9941 16.7745C18.513 16.3175 19.1826 16.0891 20.0025 16.0891ZM33.6069 16.2116V24.2389H36.487V25.3649H32.1462V16.2116H33.6069ZM38.0874 24.2424V24.4327H37.7708V25.3639H37.5287V24.4327H37.1998V24.2424H38.0875H38.0874ZM38.6721 24.2424L38.9762 25.0069L39.2555 24.2424H39.5987V25.3639H39.3705V24.5104L39.0526 25.3639H38.8881L38.5697 24.5104H38.5574V25.3639H38.3416V24.2424H38.6722H38.6721ZM27.1144 17.2014C25.7172 17.2014 25.0181 18.3546 25.0181 20.6595C25.0181 21.9797 25.2034 22.9371 25.5731 23.5338C25.9156 24.086 26.452 24.3616 27.1824 24.3616C28.5796 24.3616 29.2786 23.1994 29.2786 20.8762C29.2786 19.5744 29.0934 18.6252 28.724 18.0282C28.3812 17.4772 27.845 17.2014 27.1145 17.2014H27.1144Z" fill="#F29111"/>
<path d="M23.4521 1.36697C23.9156 0.228008 25.5363 1.09055 26.1653 1.4884C26.3194 1.58794 26.4962 1.79824 26.673 1.87597C26.9487 1.8868 27.2242 1.90838 27.5004 1.9199C28.0184 2.04164 28.5037 2.1411 28.9119 2.3736C30.809 3.49083 32.044 4.62933 33.1805 6.50987C33.4234 6.90819 33.5447 7.33922 33.7431 7.77026C34.0185 8.41275 34.3278 9.08719 34.6474 9.69473C34.7905 9.98275 34.9012 10.303 35.0999 10.5463C35.1775 10.6575 35.3978 10.6903 35.5295 10.7567C35.8937 10.9452 36.3348 11.0883 36.6773 11.3095C37.3169 11.7083 37.9352 12.1835 38.4974 12.67C38.7069 12.8578 38.8497 13.1236 39.0493 13.3222V13.4225C38.8721 13.4768 38.6955 13.5325 38.5188 13.5771C38.1328 13.6763 37.7908 13.6539 37.4163 13.7531C37.1849 13.8202 36.8976 13.9088 36.6549 13.9313L36.6773 13.9539C36.8201 14.3619 37.5926 14.6937 37.9459 14.9377C38.375 15.2474 38.7726 15.623 39.0927 16.0543C39.2032 16.1644 39.3137 16.2645 39.4237 16.3743C39.5006 16.4855 39.5222 16.6294 39.6001 16.7285V16.7621C39.5139 16.7317 39.4519 16.6737 39.3932 16.613L39.3582 16.5765C39.3232 16.5401 39.2878 16.5044 39.2475 16.4749C39.004 16.3086 38.7623 16.1097 38.5188 15.9551C38.1002 15.6895 37.6147 15.5353 37.1849 15.2687C36.9419 15.114 36.7103 14.9377 36.4786 14.7606C36.2686 14.6054 36.0374 14.3073 35.9054 14.0861C35.8277 13.9639 35.817 13.8202 35.7282 13.7318C35.7441 13.5842 35.8794 13.5403 36.0159 13.5043L36.0473 13.496C36.0944 13.4838 36.1405 13.4716 36.1807 13.4554C36.7541 13.2119 37.4378 13.1236 38.3206 13.1457C38.2873 12.9241 37.7357 12.6479 37.5596 12.5151C37.2061 12.2604 36.8318 11.9945 36.4569 11.7627C36.2582 11.6412 35.9158 11.5526 35.6957 11.4534C35.3978 11.3316 34.7358 11.21 34.5708 10.9781C34.2904 10.6126 34.089 10.1766 33.8935 9.73618L33.8403 9.61599C33.8225 9.57593 33.8047 9.53589 33.7869 9.49588C33.5558 8.96553 33.2687 8.4126 33.037 7.86957C32.9159 7.60467 32.8603 7.37217 32.7277 7.1181C31.9228 5.559 30.7314 4.25367 29.287 3.33568C28.8124 3.03698 28.2831 2.76055 27.6989 2.57268C27.3678 2.47268 26.9704 2.52798 26.6176 2.45125H26.3854C26.1873 2.39541 26.0218 2.18535 25.8672 2.07459C25.5257 1.84271 25.1837 1.68702 24.7753 1.52158C24.6323 1.45522 24.2237 1.30069 24.081 1.42235C23.9927 1.44455 23.9479 1.47788 23.9262 1.56652C23.8383 1.69878 23.9156 1.89801 23.9703 2.01998C24.1359 2.37345 24.3674 2.58351 24.5774 2.88221C24.7643 3.14711 24.9964 3.44582 25.1289 3.73384C25.4147 4.35298 25.5479 5.03894 25.8128 5.658C25.911 5.89081 26.0664 6.15571 26.2094 6.3657C26.3306 6.53237 26.5509 6.65287 26.6176 6.86387C26.7505 7.08507 26.4187 7.81496 26.3419 8.04676C26.0545 8.95377 26.1102 10.2146 26.4411 11.0008L26.4587 11.0422L26.4764 11.0842C26.5972 11.3722 26.7265 11.6822 27.0477 11.7627C27.0698 11.7408 27.0477 11.7523 27.0916 11.7408C27.1693 11.1322 27.1912 10.5462 27.4009 10.0701C27.5221 9.77238 27.7641 9.56193 27.93 9.31891C28.0406 9.38512 28.0406 9.58474 28.1065 9.71685C28.2501 10.0595 28.4042 10.4351 28.5812 10.7788C28.9444 11.4865 29.3531 12.1726 29.8161 12.7916C29.9712 13.0128 30.1913 13.2562 30.3897 13.4553C30.4781 13.5324 30.5771 13.577 30.6436 13.6762H30.6652V13.7096C30.3343 13.5877 30.1246 13.2453 29.8607 13.0455C29.3638 12.6698 28.7688 12.1057 28.4264 11.5644C28.2831 11.2536 28.1283 10.9557 27.9739 10.6465V10.6242C27.9079 10.7125 27.93 10.8002 27.897 10.9339C27.7538 11.4865 27.8641 12.1169 27.3678 12.3157C26.8052 12.5485 26.3855 11.94 26.2094 11.6635C25.6466 10.7458 25.4925 9.19748 25.8893 7.94769C25.9775 7.67103 25.9895 7.33922 26.1434 7.11833C26.1101 6.91863 25.9562 6.86402 25.8672 6.74166C25.7128 6.53253 25.5806 6.28889 25.4598 6.05663C25.2276 5.60293 25.0624 5.06083 24.8861 4.57426C24.8086 4.37557 24.7864 4.1761 24.7091 3.988C24.5773 3.7009 24.3344 3.41287 24.147 3.15887C23.8932 2.79381 23.1541 2.08627 23.4521 1.36697ZM27.0696 3.53376C27.0991 3.5633 27.1346 3.58913 27.1715 3.61458L27.2158 3.64505C27.275 3.68605 27.3323 3.7292 27.3674 3.78798C27.4231 3.86579 27.4335 3.9426 27.5002 4.02056C27.5002 4.28639 27.4231 4.46312 27.2676 4.57326C27.2676 4.57326 27.257 4.58486 27.2461 4.59569C27.1579 4.41849 27.0806 4.24222 26.9919 4.06519C26.8825 3.91065 26.7279 3.78806 26.6388 3.61149H26.6174V3.58929C26.7505 3.55642 26.8825 3.53376 27.0696 3.53376Z" fill="#00758F"/>
</g>
<defs>
<clipPath id="clip0_118_253">
<rect width="39.6" height="26.993" fill="white" transform="translate(6.10352e-05 0.799805)"/>
</clipPath>
</defs>
</svg>
