<svg width="36" height="41" viewBox="0 0 36 41" fill="none" xmlns="http://www.w3.org/2000/svg">
<path d="M17.5392 40.4869C16.9945 40.4869 16.4861 40.3417 16.0141 40.0875L11.1844 37.2188C10.4582 36.8193 10.8213 36.6741 11.0391 36.6015C12.0195 36.2747 12.2011 36.202 13.2178 35.6209C13.3269 35.5483 13.4721 35.5846 13.5809 35.6572L17.285 37.8724C17.4302 37.945 17.6118 37.945 17.7207 37.8724L32.2097 29.4842C32.3549 29.4115 32.4275 29.2663 32.4275 29.0847V12.3444C32.4275 12.1628 32.3549 12.0175 32.2097 11.9449L17.7207 3.59289C17.5755 3.52027 17.3939 3.52027 17.285 3.59289L2.79604 11.9451C2.65079 12.0177 2.57817 12.1992 2.57817 12.3445V29.0847C2.57817 29.23 2.65079 29.4115 2.79604 29.4842L6.75426 31.7718C8.89677 32.8611 10.2402 31.5902 10.2402 30.3193V13.7968C10.2402 13.5789 10.4218 13.3611 10.676 13.3611H12.528C12.7459 13.3611 12.9638 13.5426 12.9638 13.7968V30.3192C12.9638 33.1879 11.4023 34.8582 8.67876 34.8582C7.8436 34.8582 7.18999 34.8582 5.33811 33.9505L1.52514 31.7718C0.581044 31.227 6.10352e-05 30.2103 6.10352e-05 29.1209V12.3808C6.10352e-05 11.2915 0.581044 10.2747 1.52514 9.72993L16.0141 1.34172C16.9219 0.833359 18.1565 0.833359 19.0642 1.34172L33.5532 9.72993C34.4973 10.2746 35.0783 11.2913 35.0783 12.3808V29.121C35.0783 30.2104 34.4973 31.2271 33.5532 31.7718L19.0642 40.1603C18.5922 40.3781 18.0475 40.4871 17.5392 40.4871V40.4869ZM22.0056 28.9757C15.6508 28.9757 14.3436 26.0708 14.3436 23.6014C14.3436 23.3836 14.5252 23.1657 14.7794 23.1657H16.6675C16.8854 23.1657 17.0671 23.3109 17.0671 23.5288C17.3576 25.4533 18.1928 26.3976 22.0419 26.3976C25.0922 26.3976 26.3996 25.7076 26.3996 24.0736C26.3996 23.1294 26.0364 22.4395 21.2794 21.9673C17.3213 21.5679 14.852 20.6964 14.852 17.5373C14.852 14.5958 17.3212 12.8528 21.4609 12.8528C26.1089 12.8528 28.3967 14.4506 28.6872 17.9366C28.6872 18.0455 28.6509 18.1545 28.5782 18.2634C28.5056 18.336 28.3967 18.4086 28.2877 18.4086H26.3996C26.2179 18.4086 26.0364 18.2634 26 18.0818C25.5643 16.0847 24.4386 15.4311 21.4609 15.4311C18.1203 15.4311 17.7207 16.5931 17.7207 17.4645C17.7207 18.5177 18.1928 18.8444 22.6955 19.4254C27.1621 20.0063 29.2682 20.8416 29.2682 23.9646C29.2318 27.1601 26.6174 28.9757 22.0056 28.9757Z" fill="#539E43"/>
</svg>
