<svg width="41" height="27" viewBox="0 0 41 27" fill="none" xmlns="http://www.w3.org/2000/svg">
<path d="M15.3806 0.200012C14.4048 0.200012 13.4274 0.676856 12.8681 1.63054L0.707074 22.4219C-0.408129 24.3293 0.989194 26.7135 3.2196 26.7135H12.7121C12.2197 26.2908 11.8919 25.7098 11.7858 25.0716C11.6796 24.4334 11.8019 23.7784 12.1313 23.2205L21.3367 7.52427L17.8915 1.63054C17.6373 1.19285 17.2711 0.82991 16.8301 0.578634C16.389 0.327359 15.8889 0.196721 15.3806 0.200012ZM27.6727 5.02125C26.8646 5.02125 26.058 5.41065 25.595 6.19109L15.5333 23.2024C14.6089 24.7616 15.7623 26.7168 17.6094 26.7168H37.7394C39.5882 26.7168 40.7432 24.7616 39.8188 23.2024L29.7505 6.19109C29.5383 5.83143 29.2345 5.53375 28.8698 5.32807C28.505 5.12239 28.0921 5.01764 27.6727 5.02125Z" fill="#4ECB71"/>
</svg>
