<svg width="40" height="22" viewBox="0 0 40 22" fill="none" xmlns="http://www.w3.org/2000/svg">
<g clip-path="url(#clip0_118_174)">
<path d="M19.8001 21.4616C30.7353 21.4616 39.6001 16.8006 39.6001 11.0511C39.6001 5.30155 30.7353 0.640625 19.8001 0.640625C8.86482 0.640625 6.10352e-05 5.30155 6.10352e-05 11.0511C6.10352e-05 16.8006 8.86482 21.4616 19.8001 21.4616Z" fill="url(#paint0_radial_118_174)"/>
<path d="M19.8001 20.6881C30.3081 20.6881 38.8266 16.3735 38.8266 11.0511C38.8266 5.72871 30.3081 1.41406 19.8001 1.41406C9.29198 1.41406 0.773499 5.72871 0.773499 11.0511C0.773499 16.3735 9.29198 20.6881 19.8001 20.6881Z" fill="#6181B6"/>
<path d="M23.6518 14.1759L24.5954 9.31875C24.8119 8.22047 24.6263 7.40063 24.0694 6.89016C23.528 6.39516 22.5999 6.14766 21.2387 6.14766H19.599L20.063 3.73453C20.0785 3.64172 20.063 3.54891 20.0012 3.47156C19.9393 3.39422 19.8619 3.36328 19.7691 3.36328H17.5107C17.356 3.36328 17.2323 3.47156 17.2013 3.61078L16.1958 8.76188C16.103 8.17406 15.8865 7.67906 15.5152 7.27688C14.8501 6.51891 13.8137 6.13219 12.406 6.13219H8.05929C7.9046 6.13219 7.78085 6.24047 7.74991 6.37969L5.72351 16.8366C5.70804 16.9294 5.72351 17.0222 5.78538 17.0995C5.84726 17.1769 5.9246 17.2078 6.01741 17.2078H8.29132C8.446 17.2078 8.56975 17.0995 8.60069 16.9603L9.09569 14.4389H10.7818C11.6635 14.4389 12.4215 14.3461 12.9938 14.1605C13.5971 13.9594 14.1385 13.6345 14.618 13.1859C15.0048 12.8302 15.3296 12.428 15.5771 11.9948L15.1749 14.0831C15.1594 14.1759 15.1749 14.2687 15.2368 14.3461C15.2987 14.4234 15.376 14.4544 15.4688 14.4544H17.7273C17.8819 14.4544 18.0057 14.3461 18.0366 14.2069L19.1504 8.48344H20.6973C21.3624 8.48344 21.548 8.60719 21.6099 8.66906C21.6563 8.71547 21.7491 8.90109 21.6408 9.47344L20.7437 14.0986C20.7282 14.1914 20.7437 14.2842 20.8055 14.3616C20.8674 14.4389 20.9448 14.4698 21.0376 14.4698H23.3579C23.4971 14.4234 23.6208 14.3152 23.6518 14.1759ZM13.1949 10.1541C13.0557 10.8811 12.7927 11.407 12.406 11.7009C12.0193 11.9948 11.3851 12.1495 10.5498 12.1495H9.54429L10.2713 8.40609H11.5707C12.5298 8.40609 12.9165 8.60719 13.0712 8.77734C13.2723 9.02484 13.3187 9.50437 13.1949 10.1541ZM33.3043 7.27688C32.6391 6.51891 31.6027 6.13219 30.1951 6.13219H25.8174C25.6627 6.13219 25.539 6.24047 25.508 6.37969L23.4816 16.8211C23.4662 16.9139 23.4816 17.0067 23.5435 17.0841C23.6054 17.1614 23.6827 17.1923 23.7755 17.1923H26.0494C26.2041 17.1923 26.3279 17.0841 26.3588 16.9448L26.8538 14.4234H28.5399C29.4216 14.4234 30.1796 14.3306 30.7519 14.145C31.3552 13.9439 31.8966 13.6191 32.3762 13.1705C32.7783 12.7992 33.1187 12.3816 33.3662 11.933C33.6137 11.4844 33.7993 10.9894 33.9076 10.448C34.1705 9.10219 33.9694 8.05031 33.3043 7.27688ZM30.9376 10.1541C30.7983 10.8811 30.5354 11.407 30.1487 11.7009C29.7619 11.9948 29.1277 12.1495 28.2924 12.1495H27.2869L28.014 8.40609H29.3133C30.2724 8.40609 30.6591 8.60719 30.8138 8.77734C31.0304 9.02484 31.0768 9.50437 30.9376 10.1541Z" fill="white"/>
<path d="M11.5707 8.09643C12.4369 8.09643 13.0093 8.25111 13.3032 8.57596C13.5971 8.9008 13.659 9.44221 13.5043 10.2156C13.3496 11.02 13.0402 11.6078 12.5916 11.9481C12.143 12.2885 11.4624 12.4586 10.5497 12.4586H9.17302L10.0238 8.09643H11.5707ZM6.03287 16.8827H8.30677L8.84818 14.1138H10.7972C11.6635 14.1138 12.3596 14.021 12.9165 13.8353C13.4733 13.6497 13.9683 13.3558 14.4324 12.9227C14.8191 12.5669 15.1285 12.1802 15.3605 11.7625C15.5926 11.3449 15.7627 10.8808 15.8555 10.3703C16.103 9.13283 15.9174 8.17377 15.3141 7.47768C14.7108 6.78158 13.7518 6.44127 12.4369 6.44127H8.05927L6.03287 16.8827ZM17.5261 3.67236H19.7846L19.2432 6.44127H21.2541C22.5226 6.44127 23.3888 6.65783 23.8683 7.10643C24.3479 7.55502 24.4871 8.26658 24.3015 9.25658L23.3579 14.1138H21.0685L21.9657 9.48861C22.074 8.96267 22.0276 8.60689 21.8574 8.42127C21.6872 8.23564 21.3005 8.12736 20.7282 8.12736H18.9183L17.7582 14.1138H15.4997L17.5261 3.67236ZM29.3133 8.09643C30.1796 8.09643 30.7519 8.25111 31.0458 8.57596C31.3397 8.9008 31.4016 9.44221 31.2469 10.2156C31.0922 11.02 30.7829 11.6078 30.3343 11.9481C29.8857 12.2885 29.2051 12.4586 28.2924 12.4586H26.9157L27.7665 8.09643H29.3133ZM23.7755 16.8827H26.0494L26.5908 14.1138H28.5399C29.4061 14.1138 30.1022 14.021 30.6591 13.8353C31.216 13.6497 31.711 13.3558 32.1751 12.9227C32.5618 12.5669 32.8711 12.1802 33.1032 11.7625C33.3352 11.3449 33.5054 10.8808 33.5982 10.3703C33.8457 9.13283 33.6601 8.17377 33.0568 7.47768C32.4535 6.78158 31.4944 6.44127 30.1796 6.44127H25.8019L23.7755 16.8827Z" fill="#000004"/>
</g>
<defs>
<radialGradient id="paint0_radial_118_174" cx="0" cy="0" r="1" gradientUnits="userSpaceOnUse" gradientTransform="translate(11.888 4.30169) scale(26.0023 26.0023)">
<stop stop-color="white"/>
<stop offset="0.5" stop-color="#4C6B97"/>
<stop offset="1" stop-color="#231F20"/>
</radialGradient>
<clipPath id="clip0_118_174">
<rect width="39.6" height="20.8828" fill="white" transform="translate(6.10352e-05 0.640625)"/>
</clipPath>
</defs>
</svg>
