<svg width="110" height="182" viewBox="0 0 110 182" fill="none" xmlns="http://www.w3.org/2000/svg">
<path d="M7.81005 0.75H102.19C105.923 0.75 108.95 3.77656 108.95 7.51V174.49C108.95 178.223 105.924 181.25 102.19 181.25H7.81005C4.0766 181.25 1.05005 178.223 1.05005 174.49V7.51C1.05005 3.77656 4.0766 0.75 7.81005 0.75Z" fill="#282C34" stroke="white"/>
<mask id="mask0_29_21" style="mask-type:luminance" maskUnits="userSpaceOnUse" x="0" y="0" width="110" height="182">
<path d="M102.19 0.25H7.81005C3.80046 0.25 0.550049 3.50041 0.550049 7.51V174.49C0.550049 178.5 3.80046 181.75 7.81005 181.75H102.19C106.2 181.75 109.45 178.5 109.45 174.49V7.51C109.45 3.50041 106.2 0.25 102.19 0.25Z" fill="white"/>
</mask>
<g mask="url(#mask0_29_21)">
<path d="M55.5 99.0908C59.9685 99.0908 63.5909 95.4683 63.5909 90.9998C63.5909 86.5314 59.9685 82.9089 55.5 82.9089C51.0315 82.9089 47.4091 86.5314 47.4091 90.9998C47.4091 95.4683 51.0315 99.0908 55.5 99.0908Z" fill="#61DAFB"/>
<path d="M55.5 108.261C80.0767 108.261 100 100.533 100 91C100 81.4672 80.0767 73.7394 55.5 73.7394C30.9233 73.7394 11 81.4672 11 91C11 100.533 30.9233 108.261 55.5 108.261Z" stroke="#61DAFB" stroke-width="3"/>
<path d="M40.5519 99.6303C52.8402 120.914 69.4944 134.304 77.75 129.538C86.0056 124.772 82.7365 103.654 70.4481 82.3697C58.1598 61.0857 41.5056 47.6955 33.25 52.4618C24.9944 57.2282 28.2635 78.3463 40.5519 99.6303Z" stroke="#61DAFB" stroke-width="3"/>
<path d="M40.5519 82.3697C28.2635 103.654 24.9944 124.772 33.25 129.538C41.5056 134.305 58.1598 120.914 70.4481 99.6303C82.7365 78.3463 86.0056 57.2282 77.75 52.4619C69.4944 47.6955 52.8402 61.0857 40.5519 82.3697Z" stroke="#61DAFB" stroke-width="3"/>
<path d="M36.8501 169.65H73.1501" stroke="white" stroke-width="7" stroke-linecap="round"/>
</g>
</svg>
