<svg width="41" height="30" viewBox="0 0 41 30" fill="none" xmlns="http://www.w3.org/2000/svg">
<path d="M7.42833 3.49995V20H15.7261V13.4C15.7261 12.5247 16.0758 11.6854 16.6982 11.0665C17.3207 10.4476 18.1649 10.0999 19.0452 10.1H27.3429C28.2232 10.1 29.0674 10.4476 29.6899 11.0665C30.3123 11.6854 30.662 12.5247 30.662 13.4V20H33.9811V3.49995H7.42833ZM0.790131 26.5999V23.2999H7.42833C6.54805 23.2999 5.70382 22.9523 5.08137 22.3334C4.45892 21.7145 4.10923 20.8752 4.10923 20V3.49995C4.10923 2.62474 4.45892 1.78537 5.08137 1.1665C5.70382 0.547629 6.54805 0.199951 7.42833 0.199951H33.9811C34.8614 0.199951 35.7056 0.547629 36.3281 1.1665C36.9505 1.78537 37.3002 2.62474 37.3002 3.49995V20C37.3002 20.8752 36.9505 21.7145 36.3281 22.3334C35.7056 22.9523 34.8614 23.2999 33.9811 23.2999H40.6193V26.5999H30.662C30.662 27.4752 30.3123 28.3145 29.6899 28.9334C29.0674 29.5523 28.2232 29.8999 27.3429 29.8999H19.0452C18.1649 29.8999 17.3207 29.5523 16.6982 28.9334C16.0758 28.3145 15.7261 27.4752 15.7261 26.5999H0.790131ZM19.8749 26.5999C19.6549 26.5999 19.4438 26.6869 19.2882 26.8416C19.1326 26.9963 19.0452 27.2061 19.0452 27.4249C19.0452 27.6438 19.1326 27.8536 19.2882 28.0083C19.4438 28.163 19.6549 28.2499 19.8749 28.2499C20.095 28.2499 20.3061 28.163 20.4617 28.0083C20.6173 27.8536 20.7047 27.6438 20.7047 27.4249C20.7047 27.2061 20.6173 26.9963 20.4617 26.8416C20.3061 26.6869 20.095 26.5999 19.8749 26.5999ZM26.5131 26.5999C26.2931 26.5999 26.082 26.6869 25.9264 26.8416C25.7708 26.9963 25.6834 27.2061 25.6834 27.4249C25.6834 27.6438 25.7708 27.8536 25.9264 28.0083C26.082 28.163 26.2931 28.2499 26.5131 28.2499C26.7332 28.2499 26.9443 28.163 27.0999 28.0083C27.2555 27.8536 27.3429 27.6438 27.3429 27.4249C27.3429 27.2061 27.2555 26.9963 27.0999 26.8416C26.9443 26.6869 26.7332 26.5999 26.5131 26.5999ZM22.3643 26.5999V28.2499H24.0238V26.5999H22.3643ZM19.0452 13.4V24.9499H27.3429V13.4H19.0452Z" fill="#699BF7"/>
</svg>
