<svg width="41" height="31" viewBox="0 0 41 31" fill="none" xmlns="http://www.w3.org/2000/svg">
<path d="M35.0823 17.71C33.8316 17.7116 32.5977 17.996 31.4738 18.5415C31.1219 17.9609 30.8502 17.3359 30.6659 16.6833C30.5601 16.1718 30.5356 15.6469 30.5934 15.1278C30.715 14.5566 30.8727 13.9936 31.0656 13.4421C31.0585 13.37 30.9788 13.0292 30.1781 13.0179C29.3773 13.0066 28.6875 13.1692 28.6135 13.3799C28.4744 13.7647 28.3628 14.1588 28.2793 14.5593C27.6165 16.1849 26.8008 17.7445 25.8428 19.2175C25.3061 18.3427 25.0854 17.3121 25.217 16.2958C25.3386 15.7246 25.4963 15.1616 25.6892 14.6102C25.6821 14.5381 25.6025 14.1973 24.8017 14.1859C24.0009 14.1746 23.3111 14.3373 23.2371 14.548C23.1632 14.7587 23.0693 15.255 22.9029 15.7274C22.7365 16.1997 20.7936 20.5156 20.2844 21.6286C20.0227 22.1942 19.7965 22.6552 19.6372 22.9663C19.6297 22.9866 19.6201 23.006 19.6088 23.0243L19.3912 23.4373V23.4443C19.2816 23.6395 19.165 23.8205 19.1067 23.8205C19.005 23.4165 19.0099 22.9932 19.1209 22.5916C19.4054 21.094 20.1023 18.7663 20.0952 18.6857C20.0952 18.6419 20.2261 18.2375 19.6443 18.0282C19.5094 17.9643 19.3579 17.9437 19.2107 17.969C19.0635 17.9943 18.9277 18.0644 18.8222 18.1696C18.771 18.1696 18.7355 18.2926 18.7355 18.2926C18.7355 18.2926 19.3684 15.675 17.5279 15.675C16.8112 15.8184 16.1305 16.1028 15.526 16.5115C14.9214 16.9202 14.4052 17.445 14.0077 18.055C13.5127 18.3223 12.4588 18.8936 11.3308 19.5088C10.9042 19.7478 10.4575 19.9868 10.0436 20.2158C10.0152 20.1876 9.98533 20.1508 9.95688 20.1225C7.71672 17.7496 3.59909 16.0752 3.77688 12.9005C3.84231 11.7437 4.24198 8.70615 11.6836 5.01665C17.8081 2.01585 22.6824 2.84736 23.5259 4.6914C24.7334 7.32453 20.9145 12.2132 14.5865 12.9217C13.8865 13.0629 13.1635 13.0459 12.4709 12.8718C11.7784 12.6978 11.134 12.3712 10.5855 11.9162C10.2513 11.5542 10.2001 11.533 10.0764 11.6051C9.87296 11.714 10.0038 12.0393 10.0764 12.2274C10.3178 12.6617 10.6443 13.0436 11.0366 13.3503C11.4289 13.6571 11.8791 13.8826 12.3606 14.0134C14.85 14.5483 17.4455 14.2925 19.7809 13.2823C23.6212 11.8074 26.608 7.70635 25.7319 4.2714C24.8515 0.785543 19.0327 -0.364154 13.5255 1.58453C10.076 2.73858 6.88868 4.55635 4.14526 6.93423C1.11144 9.75544 0.63212 12.2061 0.8284 13.2342C1.53956 16.8799 6.59024 19.2514 8.61136 21.012C8.52005 21.0636 8.42806 21.1141 8.33543 21.1633C7.32416 21.6625 3.46966 23.6663 2.5039 25.7847C1.41298 28.1888 2.67885 29.907 3.51517 30.1389C4.77536 30.4388 6.09829 30.34 7.29928 29.8563C8.50027 29.3726 9.51938 28.5281 10.2143 27.4407C10.8061 26.5388 11.1699 25.508 11.2746 24.4362C11.3794 23.3644 11.222 22.2833 10.816 21.2849C10.8091 21.2688 10.7995 21.254 10.7875 21.2411L11.5798 20.7787C12.0611 20.4957 12.5486 20.2232 13.0419 19.9613C12.7458 20.8104 12.572 21.6969 12.5256 22.5944C12.4251 23.9701 12.8485 25.333 13.7118 26.4126C13.8432 26.525 13.9957 26.6104 14.1605 26.6638C14.3253 26.7172 14.4991 26.7376 14.6719 26.7237C15.5253 26.7237 15.9164 26.0166 16.3445 25.1766C16.868 24.15 17.3402 22.9564 17.3402 22.9564C17.3402 22.9564 16.7513 26.1821 18.3514 26.1821C18.9332 26.1821 19.522 25.4298 19.7851 25.0508V25.0579L19.8292 24.9857L19.9231 24.8344V24.8203C20.1564 24.4158 20.6798 23.4966 21.4578 21.9708C22.462 20.0037 23.4291 17.5445 23.4291 17.5445C23.5224 18.085 23.6512 18.6188 23.8146 19.1425C24.0489 19.7774 24.3259 20.3958 24.6438 20.9936C24.4105 21.3189 24.2655 21.4999 24.2655 21.4999L24.2726 21.507C24.0834 21.753 23.88 22.0203 23.6539 22.2805C22.981 23.016 22.3567 23.794 21.7849 24.6096C21.7 24.7466 21.6708 24.9106 21.7033 25.0683C21.7358 25.226 21.8276 25.3654 21.9599 25.4581C22.2593 25.613 22.6006 25.6689 22.9342 25.6179C23.4369 25.5896 23.9312 25.4773 24.3963 25.2855C24.8458 25.1283 25.2698 24.9068 25.6551 24.628C26.0522 24.3544 26.3719 23.9838 26.5834 23.5519C26.7949 23.12 26.891 22.6412 26.8626 22.1617C26.8179 21.5576 26.6627 20.9667 26.4046 20.4181C26.4772 20.3162 26.5469 20.2158 26.6152 20.114C27.4238 18.914 28.1526 17.6626 28.797 16.368C28.8903 16.9084 29.019 17.4422 29.1824 17.9659C29.3757 18.5146 29.6135 19.0466 29.8936 19.5569C28.9633 20.2685 28.2306 21.2038 27.7644 22.2748C27.3064 23.5914 27.662 24.1839 28.3333 24.3211C28.7007 24.3463 29.068 24.2715 29.3958 24.1047C29.8778 23.9472 30.3318 23.7153 30.7413 23.4175C31.1731 23.1641 31.5347 22.808 31.7936 22.3812C32.0526 21.9544 32.2008 21.4703 32.2248 20.9724C32.1925 20.4754 32.0796 19.9869 31.8906 19.5257C33.1182 19.0489 34.4492 18.8969 35.7536 19.0845C39.2155 19.489 39.8997 21.6371 39.7688 22.5421C39.7074 22.863 39.5777 23.167 39.3883 23.4339C39.1989 23.7007 38.9543 23.9242 38.6708 24.0892C38.4304 24.2405 38.3508 24.2914 38.3721 24.4003C38.4005 24.5601 38.5143 24.5516 38.7206 24.5233C39.2423 24.3621 39.7027 24.0474 40.0409 23.6207C40.3791 23.1941 40.5793 22.6755 40.6151 22.1334C40.7246 20.0122 38.6878 17.6859 35.0865 17.7072L35.0823 17.71ZM8.37099 26.6587C7.22175 27.9031 5.62163 28.3726 4.93039 27.9752C4.18793 27.551 4.47951 25.7126 5.89045 24.3946C6.72742 23.6455 7.63205 22.9748 8.59287 22.3908C8.76071 22.289 9.00819 22.1447 9.30403 21.9666L9.38368 21.9227L9.55863 21.8138C9.8107 22.6535 9.83356 23.5448 9.62485 24.3962C9.41615 25.2476 8.98339 26.0284 8.37099 26.6587ZM16.7357 21.0021C16.336 21.9708 15.4997 24.4526 14.9905 24.314C14.5538 24.1981 14.2793 22.3173 14.9037 20.4591C15.219 19.5646 15.6782 18.7269 16.2635 17.9787C16.8893 17.2843 17.5805 17.0524 17.747 17.3352C17.5951 18.6007 17.2543 19.8366 16.7357 21.0021ZM23.6382 24.2857C23.4704 24.372 23.3111 24.4272 23.2386 24.3876C23.1873 24.3593 23.3111 24.2461 23.3111 24.2461C23.3111 24.2461 24.1773 23.3199 24.5186 22.9013C24.7149 22.6552 24.9453 22.3668 25.1957 22.0401V22.1334C25.1957 23.2393 24.119 23.9845 23.6396 24.2886L23.6382 24.2857ZM28.9634 23.0781C28.8397 22.9918 28.861 22.7019 29.2763 21.7983C29.5651 21.2179 29.9685 20.7014 30.4625 20.2795C30.5383 20.4935 30.5777 20.7186 30.5792 20.9455C30.5848 21.4285 30.4295 21.8998 30.1374 22.2858C29.8454 22.6718 29.4331 22.9509 28.9648 23.0795L28.9634 23.0781Z" fill="#CD6799"/>
</svg>
