<svg width="40" height="41" viewBox="0 0 40 41" fill="none" xmlns="http://www.w3.org/2000/svg">
<g clip-path="url(#clip0_118_309)">
<path d="M35.7329 0.560059H3.86725C1.73146 0.560059 6.10352e-05 2.29146 6.10352e-05 4.42725V36.2929C6.10352e-05 38.4287 1.73146 40.1601 3.86725 40.1601H35.7329C37.8687 40.1601 39.6001 38.4287 39.6001 36.2929V4.42725C39.6001 2.29146 37.8687 0.560059 35.7329 0.560059Z" fill="url(#paint0_linear_118_309)"/>
<path d="M32.5958 5.70801H24.2303C23.2052 5.70801 22.3741 6.53908 22.3741 7.56426V21.1768C22.3741 22.2019 23.2052 23.033 24.2303 23.033H32.5958C33.621 23.033 34.4521 22.2019 34.4521 21.1768V7.56426C34.4521 6.53908 33.621 5.70801 32.5958 5.70801Z" fill="white"/>
<path d="M15.3698 5.70801H7.00432C5.97914 5.70801 5.14807 6.53908 5.14807 7.56426V31.0768C5.14807 32.1019 5.97914 32.933 7.00432 32.933H15.3698C16.395 32.933 17.2261 32.1019 17.2261 31.0768V7.56426C17.2261 6.53908 16.395 5.70801 15.3698 5.70801Z" fill="white"/>
</g>
<defs>
<linearGradient id="paint0_linear_118_309" x1="19.8001" y1="0.560059" x2="19.8001" y2="40.1601" gradientUnits="userSpaceOnUse">
<stop stop-color="#0091E6"/>
<stop offset="1" stop-color="#0079BF"/>
</linearGradient>
<clipPath id="clip0_118_309">
<rect width="39.6" height="39.6" fill="white" transform="translate(6.10352e-05 0.560059)"/>
</clipPath>
</defs>
</svg>
