<svg width="40" height="40" viewBox="0 0 40 40" fill="none" xmlns="http://www.w3.org/2000/svg">
<g clip-path="url(#clip0_118_216)">
<path d="M38.0741 4.19729L29.9465 0.284007C29.4875 0.0630125 28.9711 -0.00984766 28.4689 0.0755087C27.9666 0.160865 27.5033 0.400217 27.1431 0.760444L0.536231 25.0196C-0.179354 25.6722 -0.178425 26.7988 0.538087 27.4504L2.71145 29.426C2.99537 29.6842 3.36068 29.8349 3.74405 29.8519C4.12741 29.869 4.50466 29.7514 4.8104 29.5195L36.8511 5.2125C37.9261 4.39715 39.47 5.16378 39.47 6.51296V6.4186C39.47 5.9545 39.339 5.49982 39.092 5.10686C38.8451 4.7139 38.4923 4.39862 38.0741 4.19729Z" fill="#0065A9"/>
<path d="M38.0741 35.1259L29.9465 39.0392C29.4875 39.2602 28.9711 39.333 28.4689 39.2476C27.9667 39.1623 27.5034 38.923 27.1431 38.5628L0.536231 14.3036C-0.179354 13.6511 -0.178425 12.5244 0.538087 11.873L2.71145 9.89717C2.99539 9.63903 3.36071 9.48838 3.74407 9.47135C4.12744 9.45431 4.50468 9.57196 4.8104 9.80389L36.8511 34.1107C37.9261 34.9261 39.47 34.1594 39.47 32.8101V32.9046C39.47 33.3687 39.339 33.8234 39.092 34.2163C38.8451 34.6093 38.4922 34.9246 38.0741 35.1259Z" fill="#007ACC"/>
<path d="M29.921 39.0424C29.4618 39.2632 28.9454 39.3359 28.4431 39.2505C27.9409 39.1651 27.4775 38.9257 27.1172 38.5655C28.027 39.475 29.5827 38.8308 29.5827 37.5441V1.78418C29.5827 0.49749 28.027 -0.146783 27.1172 0.762934C27.4775 0.402678 27.9408 0.163265 28.4431 0.0778022C28.9454 -0.0076608 29.4618 0.0650493 29.921 0.285877L38.0472 4.19375C38.4656 4.39497 38.8187 4.71026 39.0658 5.10332C39.3129 5.49638 39.444 5.95124 39.444 6.41552V32.913C39.444 33.8605 38.901 34.7243 38.0472 35.1348L29.921 39.0424Z" fill="#1F9CF0"/>
</g>
<defs>
<clipPath id="clip0_118_216">
<rect width="39.6" height="39.2906" fill="white" transform="translate(6.10352e-05 0.0402832)"/>
</clipPath>
</defs>
</svg>
